<svg width="40" height="40" viewBox="0 0 40 40" fill="none" xmlns="http://www.w3.org/2000/svg">
<path d="M20 40C31.0457 40 40 31.0457 40 20C40 8.9543 31.0457 0 20 0C8.9543 0 0 8.9543 0 20C0 31.0457 8.9543 40 20 40Z" fill="#FFC801"/>
<path d="M20 11.8403V14.2745C20 14.8865 20.7425 15.1857 21.1688 14.7505L25.005 10.9564C25.28 10.6844 25.28 10.2628 25.005 9.99082L21.1688 6.19667C20.7425 5.7751 20 6.07428 20 6.68624V9.12048C13.9225 9.12048 9 13.989 9 19.9998C9 21.4141 9.275 22.774 9.78375 24.0115C10.155 24.9227 11.3375 25.1674 12.0388 24.4739C12.41 24.1067 12.5613 23.5491 12.355 23.0596C11.9563 22.1212 11.75 21.0741 11.75 19.9998C11.75 15.4985 15.4488 11.8403 20 11.8403ZM27.9612 15.5257C27.59 15.8928 27.4387 16.464 27.645 16.94C28.03 17.8919 28.25 18.9254 28.25 19.9998C28.25 24.5011 24.5513 28.1592 20 28.1592V25.725C20 25.113 19.2575 24.8139 18.8313 25.249L14.995 29.0432C14.72 29.3152 14.72 29.7367 14.995 30.0087L18.8313 33.8029C19.2575 34.2244 20 33.9253 20 33.3269V30.8791C26.0775 30.8791 31 26.0106 31 19.9998C31 18.5855 30.725 17.2256 30.2162 15.988C29.845 15.0769 28.6625 14.8321 27.9612 15.5257Z" fill="#17252A"/>
</svg>
