<?xml version="1.0" encoding="utf-8"?>
<!-- Generator: Adobe Illustrator 24.1.2, SVG Export Plug-In . SVG Version: 6.00 Build 0)  -->
<svg version="1.1" id="Layer_1" xmlns="http://www.w3.org/2000/svg" xmlns:xlink="http://www.w3.org/1999/xlink" x="0px" y="0px"
	 viewBox="0 0 103 32" style="enable-background:new 0 0 103 32;" xml:space="preserve">
<style type="text/css">
	.st0{fill:#FFFFFF;}
</style>
<g>
	<path d="M99.2,32H3.4c-1.8,0-3.2-1.4-3.2-3.2V3.2C0.2,1.4,1.6,0,3.4,0h95.8c1.8,0,3.2,1.4,3.2,3.2v25.6
		C102.4,30.6,100.9,32,99.2,32z"/>
	<g>
		<path class="st0" d="M21.7,15.8c0-2.5,2.1-3.7,2.2-3.8c-1.2-1.7-3-1.9-3.6-2c-1.5-0.2-3,0.9-3.8,0.9c-0.8,0-2-0.9-3.3-0.9
			c-1.7,0-3.2,1-4.1,2.5c-1.8,3-0.5,7.5,1.2,10c0.9,1.2,1.8,2.6,3.1,2.5s1.8-0.8,3.3-0.8c1.5,0,1.9,0.8,3.3,0.8s2.2-1.2,3-2.4
			c1-1.4,1.4-2.7,1.4-2.8C24.4,19.8,21.7,18.8,21.7,15.8z"/>
		<path class="st0" d="M19.2,8.5c0.6-0.9,1.1-2,1-3.2c-1,0.1-2.2,0.6-2.9,1.5c-0.6,0.7-1.2,1.9-1,3C17.4,9.9,18.5,9.3,19.2,8.5z"/>
		<path class="st0" d="M39.9,24.9h-1.8l-1-3h-3.4l-0.9,3h-1.7l3.4-10.3h2.1L39.9,24.9z M36.9,20.6L36,17.8c-0.1-0.2-0.2-1-0.6-1.9
			c-0.1,0.4-0.2,1.1-0.5,1.9l-0.9,2.7H36.9z"/>
		<path class="st0" d="M48.5,21.1c0,1.3-0.3,2.2-1,3c-0.6,0.6-1.4,1-2.3,1s-1.7-0.3-2.1-1V28h-1.7v-8c0-0.8,0-1.6-0.1-2.5h1.4
			l0.1,1.2c0.6-0.9,1.4-1.4,2.5-1.4c0.9,0,1.6,0.3,2.2,1C48.1,19,48.5,19.9,48.5,21.1z M46.8,21.1c0-0.7-0.2-1.4-0.5-1.8
			c-0.3-0.5-0.8-0.7-1.4-0.7c-0.4,0-0.8,0.2-1.1,0.4c-0.3,0.2-0.6,0.6-0.6,1C43,20.3,43,20.5,43,20.6v1.3c0,0.6,0.2,1,0.5,1.4
			c0.3,0.4,0.8,0.6,1.3,0.6c0.6,0,1.1-0.2,1.4-0.7C46.6,22.6,46.8,21.9,46.8,21.1z"/>
		<path class="st0" d="M57,21.1c0,1.3-0.3,2.2-1,3c-0.6,0.6-1.4,1-2.3,1c-1,0-1.7-0.3-2.1-1V28h-1.7v-8c0-0.8,0-1.6-0.1-2.5h1.4
			l0.1,1.2c0.6-0.9,1.4-1.4,2.5-1.4c0.9,0,1.6,0.3,2.2,1C56.7,19,57,19.9,57,21.1z M55.3,21.1c0-0.7-0.2-1.4-0.5-1.8
			c-0.3-0.5-0.8-0.7-1.4-0.7c-0.4,0-0.8,0.2-1.1,0.4c-0.3,0.2-0.6,0.6-0.6,1c-0.1,0.2-0.1,0.4-0.1,0.5v1.3c0,0.6,0.2,1,0.5,1.4
			c0.3,0.4,0.8,0.6,1.3,0.6c0.6,0,1.1-0.2,1.4-0.7C55.2,22.6,55.3,21.9,55.3,21.1z"/>
		<path class="st0" d="M66.6,22c0,0.9-0.3,1.6-0.9,2.2c-0.6,0.6-1.6,0.9-2.8,0.9c-1.1,0-2-0.2-2.6-0.6l0.4-1.4
			c0.7,0.4,1.5,0.6,2.4,0.6c0.6,0,1.1-0.2,1.4-0.4c0.3-0.3,0.5-0.6,0.5-1.1c0-0.4-0.2-0.8-0.4-1c-0.3-0.3-0.8-0.6-1.4-0.8
			c-1.8-0.6-2.7-1.7-2.7-3c0-0.9,0.3-1.5,1-2.1s1.4-0.8,2.6-0.8c1,0,1.7,0.2,2.3,0.5l-0.4,1.4c-0.6-0.3-1.2-0.5-2-0.5
			c-0.6,0-1,0.2-1.4,0.4c-0.2,0.2-0.4,0.6-0.4,1s0.2,0.7,0.5,1c0.2,0.2,0.8,0.5,1.5,0.8c0.9,0.3,1.5,0.8,2,1.3
			C66.4,20.7,66.6,21.3,66.6,22z"/>
		<path class="st0" d="M72,18.7h-1.8v3.6c0,0.9,0.3,1.4,1,1.4c0.3,0,0.6,0,0.7-0.1l0.1,1.3C71.6,25,71.2,25,70.7,25
			c-0.6,0-1.2-0.2-1.5-0.6c-0.4-0.4-0.6-1-0.6-2v-3.8h-1.1v-1.3h1.1v-1.4l1.6-0.5v1.8H72V18.7z"/>
		<path class="st0" d="M80.2,21.1c0,1.1-0.3,2.1-1,2.8c-0.7,0.7-1.6,1.1-2.7,1.1s-2-0.4-2.6-1.1s-1-1.6-1-2.7s0.3-2.1,1-2.8
			c0.6-0.7,1.6-1.1,2.7-1.1s2,0.4,2.6,1.1C79.9,19.1,80.2,20,80.2,21.1z M78.5,21.2c0-0.7-0.2-1.3-0.5-1.8c-0.3-0.6-0.9-0.9-1.5-0.9
			s-1.2,0.3-1.5,0.9c-0.3,0.5-0.5,1.1-0.5,1.8c0,0.7,0.2,1.3,0.5,1.8c0.3,0.6,0.9,0.9,1.5,0.9s1.1-0.3,1.5-0.9
			C78.3,22.5,78.5,21.8,78.5,21.2z"/>
		<path class="st0" d="M85.6,18.9c-0.2,0-0.3-0.1-0.6-0.1c-0.6,0-1,0.2-1.4,0.6c-0.2,0.4-0.4,0.9-0.4,1.4v3.9h-1.7v-5.1
			c0-0.9,0-1.6-0.1-2.3H83l0.1,1.4h0.1c0.2-0.5,0.5-0.9,0.8-1.2c0.4-0.2,0.8-0.4,1.2-0.4h0.4L85.6,18.9L85.6,18.9z"/>
		<path class="st0" d="M92.9,20.8c0,0.3,0,0.6-0.1,0.7h-5c0,0.7,0.2,1.3,0.7,1.7c0.4,0.3,1,0.6,1.6,0.6c0.7,0,1.4-0.1,2-0.3l0.2,1.1
			C91.7,24.9,90.9,25,90,25c-1.1,0-2.1-0.3-2.7-1c-0.6-0.6-1-1.6-1-2.7s0.3-2.1,0.9-2.8c0.6-0.8,1.5-1.2,2.6-1.2
			c1,0,1.9,0.4,2.4,1.2C92.8,19.1,92.9,19.9,92.9,20.8z M91.4,20.4c0-0.5-0.1-0.9-0.3-1.3c-0.3-0.5-0.7-0.7-1.3-0.7s-1,0.2-1.3,0.6
			c-0.2,0.3-0.4,0.8-0.5,1.3L91.4,20.4L91.4,20.4z"/>
		<path class="st0" d="M36.4,8.2c0,0.9-0.2,1.6-0.8,2.1c-0.5,0.4-1.2,0.6-2.2,0.6c-0.5,0-0.9,0-1.2-0.1v-5c0.4-0.1,0.9-0.1,1.4-0.1
			c0.9,0,1.5,0.2,2,0.6C36.1,6.8,36.4,7.4,36.4,8.2z M35.5,8.2c0-0.6-0.2-1-0.5-1.4c-0.3-0.3-0.8-0.5-1.4-0.5c-0.2,0-0.5,0-0.6,0.1
			v3.8h0.6c0.6,0,1.1-0.2,1.4-0.5C35.4,9.4,35.5,8.9,35.5,8.2z"/>
		<path class="st0" d="M40.9,9c0,0.6-0.2,1-0.5,1.4C40.1,10.8,39.6,11,39,11s-1-0.2-1.3-0.6c-0.3-0.3-0.5-0.8-0.5-1.4s0.2-1,0.5-1.4
			c0.3-0.4,0.8-0.6,1.4-0.6s1,0.2,1.3,0.6C40.7,8,40.9,8.5,40.9,9z M40.1,9c0-0.3-0.1-0.6-0.2-0.9c-0.2-0.3-0.4-0.4-0.7-0.4
			c-0.3,0-0.6,0.2-0.7,0.4c-0.2,0.2-0.2,0.6-0.2,0.9s0.1,0.6,0.2,0.9c0.2,0.3,0.4,0.4,0.7,0.4s0.6-0.2,0.7-0.5
			C40,9.7,40.1,9.4,40.1,9z"/>
		<path class="st0" d="M47,7.2l-1.1,3.7h-0.7l-0.5-1.6c-0.2-0.4-0.2-0.8-0.3-1.2c-0.1,0.4-0.2,0.8-0.3,1.2l-0.5,1.6h-0.7l-1.2-3.7
			h0.8L42.9,9c0.1,0.4,0.2,0.8,0.2,1.2c0.1-0.3,0.2-0.7,0.3-1.2l0.5-1.8h0.6L45,8.9c0.2,0.4,0.2,0.8,0.3,1.2
			c0.1-0.4,0.2-0.8,0.2-1.2l0.5-1.7L47,7.2z"/>
		<path class="st0" d="M51.2,10.9h-0.8V8.8c0-0.6-0.2-1-0.7-1c-0.2,0-0.4,0.1-0.6,0.2s-0.2,0.4-0.2,0.6v2.2h-0.8V8.2
			c0-0.3,0-0.6,0-1h0.7v0.6c0.1-0.2,0.2-0.3,0.4-0.5C49.4,7.1,49.7,7,49.9,7c0.3,0,0.6,0.1,0.9,0.3c0.3,0.2,0.4,0.6,0.4,1.2
			L51.2,10.9z"/>
		<path class="st0" d="M53.4,10.9h-0.8V5.5h0.8V10.9z"/>
		<path class="st0" d="M58.2,9c0,0.6-0.2,1-0.5,1.4c-0.3,0.4-0.8,0.6-1.4,0.6s-1-0.2-1.3-0.6c-0.3-0.3-0.5-0.8-0.5-1.4
			s0.2-1,0.5-1.4c0.3-0.3,0.8-0.6,1.4-0.6s1,0.2,1.3,0.6C58,8,58.2,8.5,58.2,9z M57.4,9c0-0.3-0.1-0.6-0.2-0.9
			c-0.2-0.3-0.4-0.4-0.7-0.4s-0.6,0.2-0.7,0.4c-0.2,0.2-0.2,0.6-0.2,0.9s0.1,0.6,0.2,0.9c0.2,0.3,0.4,0.4,0.7,0.4s0.6-0.2,0.7-0.5
			C57.3,9.7,57.4,9.4,57.4,9z"/>
		<path class="st0" d="M62.1,10.9h-0.7l-0.1-0.4c-0.2,0.3-0.6,0.5-1,0.5c-0.3,0-0.6-0.1-0.8-0.3s-0.3-0.5-0.3-0.7
			c0-0.5,0.2-0.8,0.6-1s0.9-0.3,1.6-0.3V8.5c0-0.5-0.2-0.7-0.7-0.7c-0.4,0-0.6,0.1-1,0.2l-0.2-0.6c0.3-0.2,0.7-0.3,1.3-0.3
			c1,0,1.4,0.5,1.4,1.5V10C62.1,10.4,62.1,10.6,62.1,10.9z M61.3,9.6V9C60.4,9,60,9.3,60,9.8c0,0.2,0.1,0.3,0.2,0.4s0.2,0.2,0.4,0.2
			s0.3-0.1,0.5-0.2s0.2-0.2,0.3-0.4C61.3,9.8,61.3,9.7,61.3,9.6z"/>
		<path class="st0" d="M66.8,10.9H66v-0.6c-0.2,0.5-0.6,0.6-1.2,0.6c-0.5,0-0.8-0.2-1.1-0.5s-0.4-0.8-0.4-1.4s0.2-1,0.5-1.4
			c0.3-0.3,0.7-0.5,1.1-0.5c0.5,0,0.8,0.2,1,0.5V5.6h0.8v4.3V10.9z M66,9.4V8.7c0-0.1,0-0.2,0-0.2c-0.1-0.2-0.2-0.3-0.3-0.5
			s-0.3-0.2-0.6-0.2c-0.3,0-0.6,0.2-0.7,0.4s-0.2,0.6-0.2,1s0.1,0.6,0.2,0.9s0.4,0.4,0.7,0.4c0.2,0,0.5-0.1,0.6-0.3
			C65.9,9.8,66,9.6,66,9.4z"/>
		<path class="st0" d="M73.7,9c0,0.6-0.2,1-0.5,1.4c-0.3,0.4-0.8,0.6-1.4,0.6s-1-0.2-1.3-0.6c-0.3-0.3-0.5-0.8-0.5-1.4
			s0.2-1,0.5-1.4c0.3-0.4,0.8-0.6,1.4-0.6s1,0.2,1.3,0.6C73.5,8,73.7,8.5,73.7,9z M72.8,9c0-0.3-0.1-0.6-0.2-0.9
			c-0.2-0.3-0.4-0.4-0.7-0.4s-0.6,0.2-0.7,0.4C71,8.4,70.9,8.7,70.9,9s0.1,0.6,0.2,0.9c0.2,0.3,0.4,0.4,0.7,0.4s0.6-0.2,0.7-0.5
			C72.7,9.7,72.8,9.4,72.8,9z"/>
		<path class="st0" d="M78.1,10.9h-0.8V8.8c0-0.6-0.2-1-0.7-1c-0.2,0-0.4,0.1-0.6,0.2s-0.2,0.4-0.2,0.6v2.2H75V8.2c0-0.3,0-0.6,0-1
			h0.7v0.6c0.1-0.2,0.2-0.3,0.4-0.5C76.3,7.1,76.6,7,76.8,7c0.3,0,0.6,0.1,0.9,0.3C78,7.6,78.1,8,78.1,8.6L78.1,10.9z"/>
		<path class="st0" d="M83.5,7.8h-0.9v1.8c0,0.5,0.2,0.6,0.5,0.6h0.4v0.6C83.4,11,83.1,11,82.9,11c-0.3,0-0.6-0.1-0.7-0.3
			c-0.2-0.2-0.2-0.6-0.2-1V7.8h-0.6V7.2h0.6V6.6l0.8-0.2v0.9h0.9L83.5,7.8L83.5,7.8z"/>
		<path class="st0" d="M87.8,10.9H87V8.8c0-0.6-0.2-1-0.7-1c-0.4,0-0.6,0.2-0.8,0.6v0.3v2.2h-0.8V5.5h0.8v2.2
			c0.2-0.4,0.6-0.6,1.1-0.6c0.3,0,0.6,0.1,0.8,0.3c0.2,0.2,0.4,0.7,0.4,1.2V10.9z"/>
		<path class="st0" d="M92.2,8.9v0.4h-2.4c0,0.4,0.2,0.6,0.3,0.8c0.2,0.2,0.5,0.2,0.8,0.2c0.4,0,0.7-0.1,1-0.2l0.2,0.6
			c-0.3,0.2-0.7,0.2-1.2,0.2c-0.6,0-1-0.2-1.4-0.5C89.2,10.2,89,9.7,89,9.1s0.2-1,0.5-1.4c0.3-0.4,0.7-0.6,1.3-0.6s1,0.2,1.2,0.6
			C92.1,8,92.2,8.4,92.2,8.9z M91.5,8.6c0-0.2-0.1-0.5-0.2-0.6c-0.2-0.2-0.3-0.3-0.6-0.3c-0.2,0-0.5,0.1-0.6,0.3
			c-0.2,0.2-0.2,0.4-0.2,0.6H91.5z"/>
	</g>
</g>
</svg>
