<?xml version="1.0" encoding="utf-8"?>
<!-- Generator: Adobe Illustrator 24.1.2, SVG Export Plug-In . SVG Version: 6.00 Build 0)  -->
<svg version="1.1" id="Layer_1" xmlns="http://www.w3.org/2000/svg" xmlns:xlink="http://www.w3.org/1999/xlink" x="0px" y="0px"
	 viewBox="0 0 101 32" style="enable-background:new 0 0 101 32;" xml:space="preserve">
<style type="text/css">
	.st0{fill-rule:evenodd;clip-rule:evenodd;fill:url(#SVGID_1_);}
	.st1{fill-rule:evenodd;clip-rule:evenodd;fill:url(#SVGID_2_);}
	.st2{fill-rule:evenodd;clip-rule:evenodd;fill:url(#SVGID_3_);}
	.st3{fill-rule:evenodd;clip-rule:evenodd;fill:url(#SVGID_4_);}
	.st4{fill-rule:evenodd;clip-rule:evenodd;fill:#FFFFFF;}
	.st5{fill:#FFFFFF;}
</style>
<g>
	<path d="M98.7,32H2.3c-1.8,0-3.2-1.4-3.2-3.2V3.2C-0.9,1.4,0.6,0,2.3,0h96.3c1.8,0,3.2,1.4,3.2,3.2v25.6
		C101.9,30.6,100.4,32,98.7,32z"/>
	
		<linearGradient id="SVGID_1_" gradientUnits="userSpaceOnUse" x1="-433.8737" y1="501.9718" x2="-433.6117" y2="500.9648" gradientTransform="matrix(17.1465 0 0 -18.2634 7451.606 9172.9795)">
		<stop  offset="0" style="stop-color:#006884"/>
		<stop  offset="1" style="stop-color:#8AD1D0"/>
	</linearGradient>
	<path class="st0" d="M7,15.7V7.3c0-0.5,0.4-0.9,0.8-0.9c0.4,0,0.6,0.1,0.8,0.2l15.5,8.5c0.3,0.2,0.5,0.4,0.5,0.6
		c0,0.2-0.2,0.5-0.5,0.6L8.6,24.9c-0.2,0.1-0.4,0.2-0.8,0.2c-0.4,0-0.8-0.4-0.8-0.9L7,15.7z"/>
	
		<linearGradient id="SVGID_2_" gradientUnits="userSpaceOnUse" x1="-422.9314" y1="474.6554" x2="-421.9157" y2="473.9326" gradientTransform="matrix(12.0574 0 0 -9.1317 5106.1362 4342.3071)">
		<stop  offset="0" style="stop-color:#24BBB6"/>
		<stop  offset="1" style="stop-color:#DBE692"/>
	</linearGradient>
	<path class="st1" d="M17,15.8L7.6,6.4h0.2c0.4,0,0.6,0.1,0.8,0.2L20,12.9L17,15.8z"/>
	
		<linearGradient id="SVGID_3_" gradientUnits="userSpaceOnUse" x1="-397.9599" y1="441.0508" x2="-397.9599" y2="442.1668" gradientTransform="matrix(7.3597 0 0 -5.6976 2949.6682 2531.8098)">
		<stop  offset="0" style="stop-color:#FCC072"/>
		<stop  offset="1" style="stop-color:#F58A5B"/>
	</linearGradient>
	<path class="st2" d="M19.9,18.6L17,15.7l3-3l4.1,2.2c0.3,0.2,0.5,0.4,0.5,0.6c0,0.2-0.2,0.5-0.5,0.6L19.9,18.6z"/>
	
		<linearGradient id="SVGID_4_" gradientUnits="userSpaceOnUse" x1="-422.2389" y1="473.1209" x2="-421.4262" y2="474.2047" gradientTransform="matrix(11.9008 0 0 -9.0537 5034.0264 4310.0732)">
		<stop  offset="0" style="stop-color:#712B8F"/>
		<stop  offset="1" style="stop-color:#EA1D27"/>
	</linearGradient>
	<path class="st3" d="M7.7,25l9.3-9.3l2.9,2.9L8.6,24.7C8.4,24.9,8.2,25,7.7,25C7.8,25,7.8,25,7.7,25z"/>
	<g>
		<path class="st4" d="M56.2,27.1c-0.4-0.3-0.7-0.9-0.9-1.2l1.3-0.6c0.1,0.2,0.2,0.4,0.4,0.6c0.3,0.3,0.8,0.6,1.3,0.6s1-0.2,1.4-0.6
			c0.2-0.4,0.4-0.8,0.4-1.4v-0.5c-1,1.2-3,1-4.1-0.2c-1.2-1.3-1.2-3.4,0-4.7c1.2-1.2,3-1.4,4-0.2v-0.6h1.4v6c0,1.5-0.6,2.4-1.3,3
			c-0.5,0.4-1.2,0.6-1.8,0.6C57.5,27.8,56.8,27.6,56.2,27.1z M89.8,27.4l1.4-3.2l-2.4-5.5h1.4l1.7,3.9l1.7-3.9h1.4l-3.7,8.7
			L89.8,27.4z M83.3,24.4c-0.4-0.4-0.6-1-0.6-1.5c0-0.5,0.2-1,0.5-1.3c0.6-0.6,1.4-0.8,2.2-0.8c0.6,0,1,0.1,1.4,0.3
			c0-1-0.8-1.4-1.4-1.4c-0.6,0-1.1,0.3-1.4,0.9l-1.2-0.5c0.2-0.6,0.9-1.6,2.5-1.6c0.8,0,1.6,0.2,2.1,0.8s0.6,1.2,0.6,2.1v3.4h-1.4
			v-0.6c-0.2,0.2-0.5,0.4-0.7,0.6C85.7,25,85.3,25,84.9,25C84.4,25,83.7,24.8,83.3,24.4z M40.5,21.5c0-1.6,1.2-3.4,3.4-3.4
			c2.1,0,3.4,1.8,3.4,3.4s-1.2,3.4-3.4,3.4S40.5,23.1,40.5,21.5z M47.8,21.5c0-1.6,1.2-3.4,3.4-3.4c2.1,0,3.4,1.8,3.4,3.4
			s-1.2,3.4-3.4,3.4C49.1,24.9,47.8,23.1,47.8,21.5z M31.5,23.3c-2-2-1.9-5.3,0.1-7.4c1-1,2.3-1.5,3.7-1.5c1.3,0,2.6,0.5,3.5,1.4
			l-1,1c-1.4-1.4-3.8-1.4-5.1,0.1c-1.4,1.5-1.4,3.8,0,5.4c1.4,1.5,3.9,1.6,5.3,0.1c0.5-0.5,0.6-1.1,0.7-1.8h-3.4v-1.4h4.7
			c0.1,0.3,0.1,0.7,0.1,1.1c0,1.2-0.5,2.4-1.3,3.2c-0.9,0.9-2.2,1.4-3.5,1.4C34,24.8,32.5,24.3,31.5,23.3z M65.4,23.8
			c-1.2-1.3-1.2-3.4,0-4.8c1.2-1.3,3.2-1.3,4.3,0c0.4,0.4,0.6,1,0.9,1.5l-4.4,1.8c0.2,0.6,0.8,1,1.6,1c0.7,0,1.2-0.2,1.7-1l1.2,0.8
			c-0.2,0.2-0.3,0.3-0.4,0.5C69,25.1,66.6,25.1,65.4,23.8z M73.8,24.8v-8.9h2.9c1.7,0,3,1.2,3,2.6s-1.2,2.6-2.7,2.6h-1.8v3.5
			L73.8,24.8L73.8,24.8z M80.5,24.8v-8.9h1.4v8.9H80.5z M62.4,24.6v-9.9h1.4v9.9H62.4z M86.9,22.2c-0.3-0.2-0.8-0.3-1.3-0.3
			c-1,0-1.5,0.5-1.5,1c0,0.6,0.6,0.9,1.1,0.9C86,23.8,86.9,23.1,86.9,22.2z M45.8,21.5c0-1-0.6-2-1.8-2s-1.8,1-1.8,2s0.6,2,1.8,2
			C45,23.5,45.8,22.5,45.8,21.5z M53,21.5c0-1-0.6-2-1.8-2s-1.8,1-1.8,2s0.6,2,1.8,2S53,22.5,53,21.5z M60.1,22.1
			c0-0.1,0-0.2,0.1-0.2c0-0.1,0-0.2,0-0.3s0-0.2,0-0.3v-0.1c0-0.1-0.1-0.2-0.1-0.3c-0.2-0.8-1-1.4-1.7-1.4c-1,0-1.8,1-1.8,2
			c0,1.1,0.8,2,1.8,2C59.2,23.5,59.8,23,60.1,22.1z M66,21.4l3-1.3c-0.3-0.6-0.8-0.7-1.2-0.7C66.6,19.4,65.8,20.7,66,21.4z
			 M78.3,18.6c0-0.8-0.6-1.4-1.5-1.4h-1.6v2.8h1.7C77.6,20.1,78.3,19.4,78.3,18.6z"/>
		<path class="st4" d="M90.9,25.8L90.9,25.8L90.9,25.8L90.9,25.8L90.9,25.8L90.9,25.8L90.9,25.8z"/>
		<path class="st4" d="M90.9,25.8C90.9,25.8,90.9,25.8,90.9,25.8z"/>
		<path class="st4" d="M90.9,25.8L90.9,25.8L90.9,25.8z"/>
		<path class="st4" d="M90.9,25.8L90.9,25.8L90.9,25.8z"/>
		<path class="st4" d="M90.9,25.8L90.9,25.8L90.9,25.8z"/>
		<path class="st4" d="M90.9,25.8C90.9,25.8,90.9,25.8,90.9,25.8z M90.9,25.8C90.9,25.8,90.9,25.8,90.9,25.8z"/>
		<path class="st4" d="M90.9,25.8C90.9,25.8,90.9,25.8,90.9,25.8z M90.9,25.8C90.9,25.8,90.9,25.8,90.9,25.8z"/>
		<path class="st4" d="M90.9,25.8L90.9,25.8L90.9,25.8z"/>
		<path class="st4" d="M90.9,25.8L90.9,25.8L90.9,25.8z"/>
		<path class="st4" d="M90.9,25.8C90.9,25.8,90.9,25.8,90.9,25.8z M90.9,25.8C90.9,25.8,90.9,25.8,90.9,25.8z"/>
		<path class="st4" d="M90.9,25.8C90.9,25.8,90.9,25.8,90.9,25.8z"/>
		<path class="st4" d="M91,25.8C91,25.8,91,25.8,91,25.8C90.9,25.8,90.9,25.8,91,25.8C90.9,25.8,90.9,25.8,91,25.8z M91,25.8
			C91,25.8,91,25.8,91,25.8C91,25.8,90.9,25.8,91,25.8C90.9,25.8,91,25.8,91,25.8z"/>
		<path class="st4" d="M91,25.8L91,25.8L91,25.8L91,25.8L91,25.8L91,25.8L91,25.8z"/>
		<path class="st4" d="M91,25.8C91,25.8,91,25.8,91,25.8z"/>
		<path class="st4" d="M91.1,25.8L91.1,25.8L91.1,25.8L91.1,25.8L91.1,25.8z"/>
		<path class="st4" d="M91.1,25.8L91.1,25.8L91.1,25.8z"/>
		<path class="st4" d="M91.1,25.8C91.1,25.8,91.1,25.8,91.1,25.8z"/>
		<g>
			<path class="st5" d="M30.4,8.1c0-1.4,1-2.3,2.3-2.3c0.9,0,1.4,0.4,1.8,1l-0.6,0.4c-0.2-0.3-0.6-0.6-1.2-0.6
				c-0.9,0-1.5,0.6-1.5,1.6s0.6,1.6,1.5,1.6c0.5,0,0.9-0.2,1-0.4V8.6h-1.3V7.9h2.2v1.7c-0.4,0.5-1,0.8-1.8,0.8
				C31.4,10.4,30.4,9.4,30.4,8.1z"/>
			<path class="st5" d="M35.6,10.3V5.8h3v0.7h-2.3v1.1h2.2v0.7h-2.2v1.3h2.3v0.7L35.6,10.3z"/>
			<path class="st5" d="M40.9,10.3V6.6h-1.4V5.8H43v0.7h-1.4v3.8H40.9z"/>
			<path class="st5" d="M45.8,10.3V5.8h0.8v4.5H45.8z"/>
			<path class="st5" d="M48.7,10.3V6.6h-1.4V5.8h3.5v0.7h-1.4v3.8H48.7z"/>
			<path class="st5" d="M53.5,8.1c0-1.4,1-2.3,2.3-2.3s2.3,1,2.3,2.3s-1,2.3-2.3,2.3S53.5,9.4,53.5,8.1z M57.2,8.1
				c0-1-0.6-1.6-1.5-1.6c-0.9,0-1.5,0.7-1.5,1.6c0,1,0.6,1.6,1.5,1.6C56.7,9.7,57.2,9,57.2,8.1z"/>
			<path class="st5" d="M62.1,10.3l-2.3-3.2v3.2H59V5.8h0.8L62.1,9V5.8h0.8v4.5H62.1z"/>
		</g>
	</g>
</g>
</svg>
