<svg width="256px" height="256px" viewBox="0 0 2050.00 2050.00" xmlns="http://www.w3.org/2000/svg" fill="#ffffff" stroke="#ffffff" stroke-width="0.0205"><g id="SVGRepo_bgCarrier" stroke-width="0"></g><g id="SVGRepo_tracerCarrier" stroke-linecap="round" stroke-linejoin="round" stroke="#CCCCCC" stroke-width="4.1"></g><g id="SVGRepo_iconCarrier"> <defs> <style>.cls-1{fill:#ffffff;}</style> </defs> <title></title> <g data-name="Layer 2" id="Layer_2"> <path class="cls-1" d="M1321.3,1226.8a45,45,0,0,1-31.8-76.8l103.6-103.6a274.9,274.9,0,1,0-388.8-388.7L900.7,761.2a45,45,0,0,1-63.6-63.6L940.6,594a364.9,364.9,0,1,1,516.1,516.1l-103.5,103.5A44.9,44.9,0,0,1,1321.3,1226.8Z"></path> <path class="cls-1" d="M849.7,1565.9A364.7,364.7,0,0,1,591.7,943L695.3,839.4A45,45,0,0,1,758.9,903L655.3,1006.6a274.9,274.9,0,0,0,388.8,388.8l103.6-103.6a45,45,0,0,1,63.6,63.7L1107.8,1459a363.8,363.8,0,0,1-258.1,106.9Z"></path> <path class="cls-1" d="M781,1314.7a45,45,0,0,1-31.8-76.8l496.6-496.7a45,45,0,1,1,63.7,63.7L812.8,1301.6A45.1,45.1,0,0,1,781,1314.7Z"></path> </g> </g></svg>