<svg id="Layer_1" data-name="Layer 1" xmlns="http://www.w3.org/2000/svg" viewBox="0 0 384.79 373.15"><defs><style>.cls-1{fill:#010101;}</style></defs><path class="cls-1" d="M47,178.84A45.65,45.65,0,0,0,37.14,164a46.09,46.09,0,0,0-14.74-9.85,46.36,46.36,0,0,0-18.28-3.6,46.88,46.88,0,0,0-18.35,3.6A46,46,0,0,0-29,164a45.81,45.81,0,0,0-9.85,14.81,46.48,46.48,0,0,0-3.6,18.21,46.53,46.53,0,0,0,3.6,18.22A45.91,45.91,0,0,0-29,230.08a45.84,45.84,0,0,0,14.8,9.84,46.71,46.71,0,0,0,18.35,3.61,46.19,46.19,0,0,0,18.28-3.61,45.9,45.9,0,0,0,14.74-9.84A45.75,45.75,0,0,0,47,215.27a46.54,46.54,0,0,0,3.61-18.22A46.49,46.49,0,0,0,47,178.84ZM25.88,207.68a26,26,0,0,1-5,8.49,23.11,23.11,0,0,1-7.53,5.6A21.7,21.7,0,0,1,4,223.83a21.7,21.7,0,0,1-9.4-2.06,23.21,23.21,0,0,1-7.53-5.6,26,26,0,0,1-5-8.49,32.09,32.09,0,0,1,0-21.25,26,26,0,0,1,5-8.49,23.21,23.21,0,0,1,7.53-5.6A21.7,21.7,0,0,1,4,170.28a21.7,21.7,0,0,1,9.4,2.06,23.11,23.11,0,0,1,7.53,5.6,26,26,0,0,1,5,8.49,30.92,30.92,0,0,1,1.8,10.62A30.94,30.94,0,0,1,25.88,207.68Z" transform="translate(135.91 129.46)"/><path class="cls-1" d="M-54.76,178.91a46,46,0,0,0-10-14.84,47.26,47.26,0,0,0-14.91-9.92A46.2,46.2,0,0,0-98,150.49h-37.94v93.2H-98a46.86,46.86,0,0,0,18.31-3.6,46.25,46.25,0,0,0,14.91-9.85,46.15,46.15,0,0,0,10-14.78,45.36,45.36,0,0,0,3.66-18.1A46.6,46.6,0,0,0-54.76,178.91Zm-21.84,29a26.8,26.8,0,0,1-4.92,8.53,23,23,0,0,1-7.39,5.65A20.46,20.46,0,0,1-98,224.12h-15V170.06h15a20,20,0,0,1,9.06,2.13A23.45,23.45,0,0,1-81.52,178a27.46,27.46,0,0,1,4.92,8.66,31.37,31.37,0,0,1,1.8,10.72A30.38,30.38,0,0,1-76.6,207.87Z" transform="translate(135.91 129.46)"/><path class="cls-1" d="M245.27,178.84a45.27,45.27,0,0,0-24.59-24.66,46.75,46.75,0,0,0-51.43,75.9,45.78,45.78,0,0,0,14.81,9.84,48.24,48.24,0,0,0,36.62,0,46.93,46.93,0,0,0,24.59-61.08Zm-21.11,28.84a25.8,25.8,0,0,1-5,8.49,23.11,23.11,0,0,1-7.53,5.6,22.48,22.48,0,0,1-18.8,0,23.32,23.32,0,0,1-7.53-5.6,26,26,0,0,1-5-8.49,32.09,32.09,0,0,1,0-21.25,26,26,0,0,1,5-8.49,23.32,23.32,0,0,1,7.53-5.6,22.48,22.48,0,0,1,18.8,0,23.11,23.11,0,0,1,7.53,5.6,25.8,25.8,0,0,1,5,8.49,32.26,32.26,0,0,1,0,21.25Z" transform="translate(135.91 129.46)"/><path class="cls-1" d="M143.52,178.91a46.11,46.11,0,0,0-10-14.84,47.42,47.42,0,0,0-14.92-9.92,46.15,46.15,0,0,0-18.3-3.66H62.37v93.2h37.95a47.22,47.22,0,0,0,33.22-13.45,46.28,46.28,0,0,0,10-14.78,45.36,45.36,0,0,0,3.66-18.1A46.6,46.6,0,0,0,143.52,178.91Zm-21.83,29a27,27,0,0,1-4.93,8.53,23,23,0,0,1-7.39,5.65,20.45,20.45,0,0,1-9.05,2.07h-15V170.06h15a20,20,0,0,1,9.05,2.13,23.45,23.45,0,0,1,7.39,5.79,27.68,27.68,0,0,1,4.93,8.66,31.61,31.61,0,0,1,1.79,10.72A30.61,30.61,0,0,1,121.69,207.87Z" transform="translate(135.91 129.46)"/><path class="cls-1" d="M96.33-61.76a47.31,47.31,0,0,0,3.9-7.58,44,44,0,0,0,3.25-13.79c1-9.1-1.16-16.49-6.34-18.69s-11.77,1.23-17.49,8.06c0-.45,0-.9,0-1.36,0-19-8.64-34.34-19.3-34.34S41.08-114.09,41.08-95.12c0,1.34,0,2.67.13,4-6.48-8.86-15-13.41-21.09-10.48C12.51-98,11.59-84,18.06-70.47a79.36,79.36,0,0,0,4.85,8.11c-82.63,13.13-129.67,80-135.6,189.61h46.22C-61.59,37-19.49-14,56.56-12.45,126.4-11,179.77,34.69,179.06,127.25h46.21C226.12,18,172.26-44.78,96.33-61.76Z" transform="translate(135.91 129.46)"/><path class="cls-1" d="M23.2,49.53A9.24,9.24,0,0,0,14,58.77V81.45a9.24,9.24,0,0,0,18.48,0V58.77A9.24,9.24,0,0,0,23.2,49.53Z" transform="translate(135.91 129.46)"/><path class="cls-1" d="M94.81,49.53a9.24,9.24,0,0,0-9.24,9.24V81.45a9.24,9.24,0,1,0,18.48,0V58.77A9.24,9.24,0,0,0,94.81,49.53Z" transform="translate(135.91 129.46)"/></svg>