<svg id="Layer_1" data-name="Layer 1" xmlns="http://www.w3.org/2000/svg" viewBox="0 0 934.7 164.7"><defs><style>.cls-1{fill:#303030;}.cls-2{fill:#fff;}.cls-3{fill:#ededed;}</style></defs><rect class="cls-1" width="164.7" height="164.7" rx="43.57"/><path class="cls-2" d="M126.78,539.16v15.68l-20.29,24s-13.84-30.44-28.6-47.05c6.45-6.46,31.36-26.75,41.51-85.8H124v75.15a9.23,9.23,0,0,0,2.77,18Z" transform="translate(-44.43 -430.05)"/><path class="cls-3" d="M175.68,531.78c-14.76,16.61-28.6,47.05-28.6,47.05l-20.3-24V539.16a9.23,9.23,0,0,0,2.77-18V446h4.61C144.31,505,169.22,525.32,175.68,531.78Z" transform="translate(-44.43 -430.05)"/><path class="cls-1" d="M288.46,547.82c8.08,0,13.84-2.74,18.23-9.05l3,1.92c-4.52,16.72-15.62,24.26-31,24.26C259.67,565,245,551.38,245,528.9c0-23.16,14.8-40.57,37.55-40.57,13.85,0,25.09,5.34,25.09,17.41a10.71,10.71,0,0,1-6,10h-13a55,55,0,0,0,.55-7.81c0-7.95-2.19-13.43-8.77-13.43-8.5,0-13.43,10.83-13.43,24.94C266.94,537,274.75,547.82,288.46,547.82Z" transform="translate(-44.43 -430.05)"/><path class="cls-1" d="M314.08,528.08c0-23,15.9-39.75,38.38-39.75s38.25,14.39,38.25,36.87c0,23-15.9,39.75-38.38,39.75S314.08,550.56,314.08,528.08Zm49.76,3.15c0-22.48-3.15-37.14-12.06-37.14-8.23,0-10.83,10.55-10.83,28,0,22.48,3.29,37.14,12.06,37.14C361.24,559.19,363.84,548.64,363.84,531.23Z" transform="translate(-44.43 -430.05)"/><path class="cls-1" d="M403.18,504.78l-7.54-4.66v-3.84l28.65-7.95h4.79l-.54,13.3c3.83-6.17,11.37-13.3,23-13.3,16.18,0,27.69,11.24,27.69,33.72,0,28.1-17.13,42.9-38.79,42.9-5.21,0-9.59-1-11.92-2.88V581.4c0,4.93,2.46,5.21,10.55,5.89v5.35H395.5v-5.35c5.48-.41,7.68-1,7.68-5.34Zm50.3,24.94c0-18.09-6.44-26.45-16.86-26.45a14.25,14.25,0,0,0-8.08,2.33v38.52c0,8.91,2.46,14.39,9.73,14.39C448.14,558.51,453.48,545.9,453.48,529.72Z" transform="translate(-44.43 -430.05)"/><path class="cls-1" d="M543.4,503.82a11,11,0,0,0,1.1-4c0-3-1.92-3.83-9-4.79V489.7h24.94v5.35c-4.66,1.5-5.75,2.46-7,5.48l-31.25,75c-5.07,12.06-10.14,18.36-19.74,18.36-5.34,0-9.59-2.19-11.51-5.75v-9.74a50.2,50.2,0,0,0,10.69,1.37c7.68,0,11.65-2.19,14.12-8L517.9,567l-31.25-66.48c-1.37-3-2.19-4-7-5.48V489.7h43.86v5.35c-7.26,1-9,1.78-9,4.79a11.93,11.93,0,0,0,1,3.84l14.39,34.95Z" transform="translate(-44.43 -430.05)"/><path class="cls-1" d="M666.35,503.68a11.57,11.57,0,0,0,1-4.25c0-2.88-2.47-3.7-7.82-4.38V489.7h23.72v5.35c-4.8,1.5-5.76,2.46-7,5.48l-27,63.6H641l-16.17-42.36-19.19,42.36h-8.09l-28.79-63.6c-1.37-3-2.19-4-7-5.48V489.7h41.13v5.35c-4.53.68-6.45,1.78-6.45,4.24a13.39,13.39,0,0,0,1.1,4.39l13,31.94,10.28-22.89-4.66-12.2c-1.1-3-2.6-4.39-6.3-5.48V489.7h40.57v5.35c-5.76.68-8.5,1.23-8.5,4.66a12.71,12.71,0,0,0,.82,4l11.38,30.57Z" transform="translate(-44.43 -430.05)"/><path class="cls-1" d="M719.8,550.83c0,5.9,3.15,6.45,11,7.4v5.35H686.91v-5.35c5.48-.41,7.67-1,7.67-5.34V504.78L687,500.12v-3.84l28.65-7.95h4.66l-.55,21.11c5.62-16,10.42-21.11,19.05-21.11,3.16,0,5.49,1,6.86,2.33v19h-3.29c-8.64,0-16.31.28-22.62,4.94Z" transform="translate(-44.43 -430.05)"/><path class="cls-1" d="M782.44,552.89c0,4.39,2.19,4.93,7.68,5.34v5.35H749.54v-5.35c5.49-.41,7.68-1,7.68-5.34V504.78l-7.54-4.66v-3.84l28.51-7.95h4.25Zm-25.77-83.34c0-6.85,4.93-12.61,13.43-12.61,8.23,0,13.44,5.76,13.44,12.61s-5.21,12.75-13.44,12.75C761.6,482.3,756.67,476.4,756.67,469.55Z" transform="translate(-44.43 -430.05)"/><path class="cls-1" d="M826.16,489.7h16v7.4h-16v45.37c0,6.58,2.61,9.46,7.82,9.46,3.56,0,6.58-1.23,9.87-3.43l2,3C840.69,560,833,565,822.05,565c-12.61,0-21.38-6.3-21.38-22.48V497.1h-7.81v-4.52c11-4.11,20.83-12.06,28-21.52h5.34Z" transform="translate(-44.43 -430.05)"/><path class="cls-1" d="M914.71,518.35v3.42H871c-.27,16.32,8.78,26.46,21.25,26.46,8.77,0,15.21-3.15,20.42-10l2.61,1.65C911.56,555,901,565,883.73,565c-20.28,0-35.64-13.57-35.64-36.6,0-24.39,16.86-40,36.6-40S914.71,500.94,914.71,518.35Zm-43.59-2.88h21.93c0-13.3-2.6-21.38-10-21.38S871.81,502.72,871.12,515.47Z" transform="translate(-44.43 -430.05)"/><path class="cls-1" d="M953.22,550.83c0,5.9,3.16,6.45,11,7.4v5.35H920.33v-5.35c5.48-.41,7.67-1,7.67-5.34V504.78l-7.54-4.66v-3.84l28.65-7.95h4.66l-.55,21.11c5.62-16,10.42-21.11,19.06-21.11,3.15,0,5.48,1,6.85,2.33v19h-3.29c-8.64,0-16.31.28-22.62,4.94Z" transform="translate(-44.43 -430.05)"/></svg>