<svg xmlns="http://www.w3.org/2000/svg" viewBox="0 0 300 300"><defs><style>.cls-1{fill:#fff;}.cls-2{fill:#282842;}</style></defs><title>Asset 25</title><g id="Layer_2" data-name="Layer 2"><g id="Layer_1-2" data-name="Layer 1"><circle class="cls-1" cx="150" cy="150" r="148.7"/><path class="cls-2" d="M208.78,104.67v62.24c0,7.05,1.39,11,3.46,13.1a7.55,7.55,0,0,0,5,2.11V104.67Zm46.1,33.82A19.4,19.4,0,0,1,257,136a19.74,19.74,0,0,1,28,0c.28.28.56.59.83.9a136.38,136.38,0,0,0-271.5,0c.27-.31.55-.62.83-.9a19.81,19.81,0,0,1,30,2.46,105.51,105.51,0,0,1,209.76,0ZM290.7,150h0A140.7,140.7,0,0,1,9.3,150h0v-.28a140.7,140.7,0,0,1,281.4,0V150ZM173.27,236.89A90,90,0,0,0,240,150h4.32a94.35,94.35,0,0,1-69.88,91.08Zm-47.68,4.19A94.23,94.23,0,0,1,55.71,150H60a90,90,0,0,0,66.66,86.89ZM76.66,90.73a94.28,94.28,0,0,1,146.68,0L220,93.43a90,90,0,0,0-140,0ZM221.54,78.46A101.16,101.16,0,1,0,251.18,150a100.79,100.79,0,0,0-29.64-71.54Zm-50.76,36H159.16a9.46,9.46,0,0,1-2.52,4.49,9.42,9.42,0,0,1-13.28,0,9.46,9.46,0,0,1-2.52-4.49h-33V119h6.71v4.32h-11V110.17h3.28a12.09,12.09,0,0,1-2.56-5.5H95.54V201.9a7.88,7.88,0,0,0,5.08-2.14c2-2.08,3.43-6,3.43-13.11h4.32c0,8.37-1.9,13.28-4.7,16.15-3,3-6.75,3.6-10.41,3.39l-2-.1V182.64a3.4,3.4,0,0,1-.38.38c-3,3-6.78,3.63-10.41,3.43l-2-.11V161.07a2.73,2.73,0,0,0-.38.38c-3,3-6.78,3.63-10.44,3.42l-2-.14V100.35h42.84v2.14a7.68,7.68,0,0,0,7.67,7.68h24.8a9.49,9.49,0,0,1,2.52-4.5,9.44,9.44,0,0,1,13.28,0,9.49,9.49,0,0,1,2.52,4.5h4a9,9,0,0,1-1.32-4.67h4.32a4.68,4.68,0,0,0,4.67,4.67H184a7.68,7.68,0,0,0,7.67-7.68v-2.14h42.84v64.38l-2,.14c-3.66.21-7.46-.42-10.44-3.42a2.73,2.73,0,0,0-.38-.38v25.27l-2,.11c-3.66.2-7.43-.38-10.41-3.43a3.4,3.4,0,0,1-.38-.38v23.45l-2,.1c-3.66.21-7.43-.38-10.41-3.39-2.8-2.87-4.7-7.78-4.7-16.15H196c0,7.09,1.39,11,3.43,13.11a7.74,7.74,0,0,0,5.08,2.14V104.67h-8.71a11.75,11.75,0,0,1-2.6,5.5h3.32v13.17h-11V119h6.71v-4.53H170.78Zm-6.5-28.29a12.47,12.47,0,0,1,7.5,4.26,12.22,12.22,0,0,1,3.12,8h-4.33a8.44,8.44,0,0,0-6.95-8l-19.08-2.9a12.35,12.35,0,0,1-6.33-3v17a5.93,5.93,0,0,1-1.76,4.25,6.05,6.05,0,0,1-4.29,1.8,6.13,6.13,0,0,1-6-6.05h4.32a1.73,1.73,0,0,0,.52,1.21,1.68,1.68,0,0,0,1.21.51,1.83,1.83,0,0,0,1.24-.51,1.7,1.7,0,0,0,.49-1.21V75.31h4.32a8.13,8.13,0,0,0,2,5.22,8.45,8.45,0,0,0,4.91,2.8Zm-2.49,19.3V98.24h4.32v7.26Zm-19.5,39.62h5.53v-3.35h-5.53v-4.32h5.53V133c-2-3-4.6-6.19-7.57-8.05a8.66,8.66,0,0,0-9.51-.28,6.85,6.85,0,0,0-3.32,4.6,9.36,9.36,0,0,0,1.38,6.43h0a28.24,28.24,0,0,0,3.84,4.74c3.29,3.52,6.68,7.15,6.68,12.62v2.14H123.55v-2.14c0-2.11-2.46-4.39-5-6.78-4.77-4.5-9.78-9.16-5.22-16.42a11.44,11.44,0,0,1,5.71-4.53,12.17,12.17,0,0,1,5.63-.63A11.25,11.25,0,0,1,128.6,121c5.18-3,9.89-2.17,14,.38a28.62,28.62,0,0,1,7.43,7.3,28.62,28.62,0,0,1,7.43-7.3c4.08-2.55,8.79-3.38,14-.38a11.6,11.6,0,0,1,3.95,3.77,12,12,0,0,1,5.6.63,11.39,11.39,0,0,1,5.74,4.53c4.56,7.26-.45,11.92-5.26,16.42-2.52,2.39-5,4.67-5,6.78v2.14H160.68v-2.14c0-5.47,3.39-9.1,6.64-12.62a26.71,26.71,0,0,0,3.88-4.74h0a9.1,9.1,0,0,0,1.34-6.43,6.68,6.68,0,0,0-3.28-4.6,8.65,8.65,0,0,0-9.51.28c-3,1.86-5.53,5-7.61,8.05v4.43h5.57v4.32h-5.57v3.35h5.57v4.33h-5.57v10.09h23.55a7,7,0,0,1,1.7-2.69,6.88,6.88,0,1,1,0,9.75,7.12,7.12,0,0,1-1.7-2.73H124.31a7.12,7.12,0,0,1-1.7,2.73,6.92,6.92,0,1,1,0-9.75,7,7,0,0,1,1.7,2.69h23.51V149.45h-5.53Zm30,54.53v29.29l5.74-3.8v-28.6c-1.83,1-3.77,2.08-5.74,3.11Zm10.06-5.84v33.65l-10.06,6.63L168,236.93l-10.07,6.64h0L150,248.76l-7.88-5.19h0l-10.07-6.64-4.32-2.84-10.06-6.63V193.81c-8.37-5.88-14.14-14.14-14.14-32.92V126.52h4.32v34.37c0,14.56,3.91,22.13,9.82,27.32V176.94H122v14.52c2.56,1.66,5.4,3.15,8.34,4.7,2.42,1.28,4.91,2.6,7.46,4.08V172.3H127.46V168h14.66v35c1.9,1.31,3.8,2.73,5.7,4.32V167.91h4.32v39.35c1.91-1.59,3.84-3,5.74-4.32V168h14.66v4.32H162.21v27.94c2.55-1.48,5-2.8,7.46-4.08,2.94-1.55,5.75-3,8.34-4.7V176.94h4.32v11.27c5.91-5.19,9.82-12.76,9.82-27.32V126.52h4.32v34.37c0,18.78-5.81,27-14.14,32.92Zm-20.12,11.48v30.26l5.74-3.77V202c-1.91,1-3.81,2.11-5.74,3.32ZM122,196.54v28.6l5.74,3.8V199.65c-2-1-3.91-2.07-5.74-3.11ZM132.05,202v29.81l5.74,3.77V205.29c-1.93-1.21-3.87-2.32-5.74-3.32Zm10.07,6.26v30.19L150,243.6l7.88-5.18V208.23a61,61,0,0,0-5.74,4.88v17.77h-4.32V213.11a59.46,59.46,0,0,0-5.7-4.88Zm-10.07-31.29v13.72h-4.32V176.94Zm40.22,0v13.72H168V176.94ZM153.6,108.75a5.08,5.08,0,0,0-8.68,3.59,5,5,0,0,0,1.48,3.57,5.08,5.08,0,1,0,7.2-7.16Zm-30.5,20.19a8,8,0,0,0-2.6.45,7,7,0,0,0-3.52,2.8c-2.66,4.22,1,7.68,4.53,11,2.59,2.46,5.15,4.84,6,7.75h7.16c-.79-2.77-3-5.19-5.18-7.5a30.26,30.26,0,0,1-4.43-5.54h0a13.8,13.8,0,0,1-2-8.92Zm53.77,0a13.58,13.58,0,0,1-1.94,8.92h0a30.26,30.26,0,0,1-4.43,5.54c-2.17,2.31-4.39,4.73-5.18,7.5h7.16c.86-2.91,3.42-5.29,6-7.75,3.53-3.28,7.19-6.74,4.53-11a7.13,7.13,0,0,0-3.52-2.8,8,8,0,0,0-2.63-.45Zm-57.3,30.95a2.55,2.55,0,0,0-3.63,0,2.54,2.54,0,0,0-.76,1.83,2.57,2.57,0,0,0,4.39,1.8,2.6,2.6,0,0,0,.76-1.8,2.67,2.67,0,0,0-.76-1.83Zm64.49,0a2.55,2.55,0,0,0-3.63,0,2.51,2.51,0,0,0-.76,1.83,2.44,2.44,0,0,0,.76,1.8,2.58,2.58,0,0,0,4.39-1.8,2.54,2.54,0,0,0-.76-1.83ZM91.22,104.67H82.71v77.45A7.55,7.55,0,0,0,87.76,180c2.07-2.07,3.46-6,3.46-13.1Zm-12.83,0H69.85v55.88a7.61,7.61,0,0,0,5.08-2.11c2-2.08,3.46-6.05,3.46-13.11Zm143.22,0v40.66c0,7.06,1.42,11,3.46,13.11a7.61,7.61,0,0,0,5.08,2.11V104.67ZM150,0A150.05,150.05,0,1,1,44,44,149.48,149.48,0,0,1,150,0ZM253.46,46.54A146.35,146.35,0,1,0,296.3,150,145.91,145.91,0,0,0,253.46,46.54ZM55.13,95.6,44.69,90.53l6,9.22-1.22,2.47-10.66,1,10.13,5-2.53,5.14-19.64-9.67L29,99.1l14.73-1.33-8-12.31L38,80.88l19.68,9.61ZM66.2,73.51l-6,7.08,2.15,4.06-4.07,4.83L47.79,68l3.93-4.66,23,6.69-4.15,4.92ZM61.53,72l-7.17-2.36,3.55,6.67ZM79.22,56.82l4.92,6.12-4.83,3.88-5-6.2L59.09,55l5.09-4.09,9.5,3.53-1.4-10L77,40.62ZM94.7,54.51a11.19,11.19,0,0,1-9-17.68,14,14,0,0,1,11.13-5.65,11.2,11.2,0,0,1,9,17.69A14,14,0,0,1,94.7,54.51Zm6.23-8.14a5.49,5.49,0,0,0,.9-2.92,6.56,6.56,0,0,0-.78-3.27,6.81,6.81,0,0,0-2.17-2.57,5.65,5.65,0,0,0-2.9-1,5.87,5.87,0,0,0-3,.66,5.79,5.79,0,0,0-2.32,2,5.55,5.55,0,0,0-.9,2.93,7.23,7.23,0,0,0,3,5.83,5.63,5.63,0,0,0,2.89,1,6.13,6.13,0,0,0,5.36-2.72Zm21.2-7.9-3.28.82,1.42,5.64-6,1.51L108.93,25.2l9.71-2.43a12.57,12.57,0,0,1,5.25-.3A8,8,0,0,1,130,32.55,7.52,7.52,0,0,1,127.57,36l6.26,5.52-6.43,1.61Zm.33-10.76a4.24,4.24,0,0,0-3-.12l-3.34.84,1.56,6.22,3.34-.84a4.38,4.38,0,0,0,2.59-1.5,3,3,0,0,0,.36-2.53A3,3,0,0,0,122.46,27.71Zm28,12.06a10.8,10.8,0,0,1-4.11-4.24,11.07,11.07,0,0,1-1.3-5.94,11.21,11.21,0,0,1,1.82-5.81,11,11,0,0,1,4.48-3.85,13,13,0,0,1,6.24-1.18,13.22,13.22,0,0,1,5.35,1.31,10.36,10.36,0,0,1,3.87,3.24l-4.1,3.39a6.49,6.49,0,0,0-5-2.8,6.4,6.4,0,0,0-3.21.64,5.38,5.38,0,0,0-2.25,2.11,6.63,6.63,0,0,0-.91,3.23,6.82,6.82,0,0,0,.61,3.3,5.46,5.46,0,0,0,2.06,2.3,6.35,6.35,0,0,0,3.14.92,6.46,6.46,0,0,0,5.27-2.33l3.78,3.74A10.4,10.4,0,0,1,162,40.68a13.19,13.19,0,0,1-5.45.82A12.92,12.92,0,0,1,150.42,39.77Zm32.71,1.68-9-2.34-2.74,3.68-6.11-1.59L180.2,22.45,186.1,24,190,47.63,183.72,46Zm-.6-4.88-1-7.49-4.49,6.07Zm31.51.09a7.42,7.42,0,0,1,.84,8.41,7.35,7.35,0,0,1-7.28,4.25,12.3,12.3,0,0,1-5-1.46l-3.41-1.73-2.59,5.11L191,48.43,201,28.91l8.92,4.54A12.39,12.39,0,0,1,214,36.66Zm-6.67,7.25a3,3,0,0,0,1.94-1.67,3,3,0,0,0,.21-2.56,4.26,4.26,0,0,0-2.18-2l-3.07-1.56-2.91,5.71,3.07,1.56A4.32,4.32,0,0,0,207.37,43.91Zm16.13-2.42,5,3.6L215.82,62.91l-5-3.6Zm10.9,14.77-4.88-4.62,3.37-3.57,14.25,13.48-3.37,3.57-4.87-4.6L227.23,72.86l-4.5-4.26Zm10.32,31.26L239.31,80l-4.45,1.09L231.16,76l23.42-5,3.56,5L246,96.63l-3.76-5.23Zm2.65-4.14,4-6.38-7.33,1.81ZM266.2,89l2.57,5.64-15.45,7,4.33,9.51-4.46,2-6.91-15.14Zm3.3,30a3.51,3.51,0,1,1-3.51-3.51A3.51,3.51,0,0,1,269.5,119Zm-232,0A3.51,3.51,0,1,1,34,115.52,3.51,3.51,0,0,1,37.52,119Z"/><path class="cls-1" d="M37.77,147.22l0,2.78-19.45-.31,0-2.78Z"/><path class="cls-1" d="M39.77,172.94l-19.29,2.51-.29-2.26,12.87-13.44-14.38,1.87-.36-2.75,19.29-2.51.29,2.26L25,172.06l14.38-1.87Z"/><path class="cls-1" d="M46.53,194.75l-21.14-2-.87-2.61,15.77-14.24,1,2.85-13,11.67,17.39,1.67Z"/><path class="cls-1" d="M39.63,217.81,37.5,219l-6.67-12.44L48,197.32l6.48,12.1-2.13,1.14-5.17-9.65-5.26,2.83,4.6,8.59-2.08,1.12-4.6-8.6-5.54,3Z"/><path class="cls-1" d="M43.32,226.59a8.67,8.67,0,0,1-.56-3.62l2.34-.5a8.73,8.73,0,0,0,.45,3.24,10.28,10.28,0,0,0,1.69,3.21,6.42,6.42,0,0,0,2.85,2.37,2.51,2.51,0,0,0,2.45-.39,2.12,2.12,0,0,0,.89-1.51,4.33,4.33,0,0,0-.22-1.86,26.13,26.13,0,0,0-1.06-2.6,29.35,29.35,0,0,1-1.32-3.45,5.85,5.85,0,0,1-.12-2.82,4.38,4.38,0,0,1,1.76-2.57A5.06,5.06,0,0,1,55.2,215a5.74,5.74,0,0,1,3.1.75,10.31,10.31,0,0,1,3.12,2.82,13,13,0,0,1,1.71,3,9,9,0,0,1,.73,3.05l-2.32.63a9.94,9.94,0,0,0-.65-2.79,9.63,9.63,0,0,0-1.35-2.4,6,6,0,0,0-2.84-2.29,2.66,2.66,0,0,0-2.48.42,2.14,2.14,0,0,0-.88,1.52,4.61,4.61,0,0,0,.24,1.91,22.66,22.66,0,0,0,1.05,2.57,26.75,26.75,0,0,1,1.31,3.44,5.89,5.89,0,0,1,.13,2.8A4.28,4.28,0,0,1,54.34,233a5,5,0,0,1-2.72,1,5.58,5.58,0,0,1-3.13-.78,10.54,10.54,0,0,1-3.13-2.86A13.27,13.27,0,0,1,43.32,226.59Z"/><path class="cls-1" d="M69.7,231.88l-4.81-4.61,1.67-1.75,11.62,11.13-1.67,1.75-4.82-4.61-11.78,12.3-2-1.91Z"/><path class="cls-1" d="M88.36,243.85l2.34,1.5L80.2,261.72l-2.34-1.5Z"/><path class="cls-1" d="M111.37,255.78l-8,17.71-2.08-.94-4.65-18-6,13.21-2.53-1.15,8-17.71,2.08.94,4.65,18,6-13.21Z"/><path class="cls-1" d="M130.89,273.54l-1.09,6.63-2.72-.44,1.1-6.69-5.56-13.76,2.93.48L130,270.89l7.83-9.1,2.72.45Z"/><path class="cls-1" d="M146.73,280.71A9.59,9.59,0,0,1,143,277.2a10.29,10.29,0,0,1-.17-10.17,9.67,9.67,0,0,1,3.66-3.63,10.92,10.92,0,0,1,5.28-1.38,10.78,10.78,0,0,1,5.3,1.21,9.44,9.44,0,0,1,3.75,3.5,9.75,9.75,0,0,1,1.42,5.07,9.9,9.9,0,0,1-1.25,5.12,9.52,9.52,0,0,1-3.64,3.62,11.53,11.53,0,0,1-10.58.17Zm9.12-2.3a7.24,7.24,0,0,0,2.65-2.73,7.9,7.9,0,0,0-.13-7.64,7.14,7.14,0,0,0-2.74-2.63,7.52,7.52,0,0,0-3.86-.91,7.73,7.73,0,0,0-3.86,1,7.1,7.1,0,0,0-2.68,2.73,7.9,7.9,0,0,0,.13,7.64,7.06,7.06,0,0,0,2.76,2.63,8.18,8.18,0,0,0,7.73-.12Z"/><path class="cls-1" d="M172.19,278a8.78,8.78,0,0,1-3.5-5.77l-2.38-10.8,2.71-.6,2.36,10.69q1.35,6.11,6.7,4.92a5.28,5.28,0,0,0,3.65-2.38,6.76,6.76,0,0,0,.37-4.91l-2.36-10.69,2.63-.58,2.39,10.8q.9,4.1-.74,6.72a9.4,9.4,0,0,1-11.83,2.6Z"/><path class="cls-1" d="M207.74,268.56l-6.23-3.81c-.46.24-.83.42-1.1.53L196,267.2l2.36,5.43-2.55,1.1-7.75-17.84,7-3a9,9,0,0,1,6.18-.71,6.12,6.12,0,0,1,4,3.7,6.49,6.49,0,0,1,.51,4,6.29,6.29,0,0,1-2,3.38l6.83,4.15Zm-5.11-8.06a4.49,4.49,0,0,0-2.58-5.95,6.25,6.25,0,0,0-4.14.57L191.57,257l3.49,8,4.33-1.88A6.14,6.14,0,0,0,202.63,260.5Z"/><path class="cls-1" d="M217.62,242.68l4.15,5.36,7.71-6L231,244l-7.72,6,4.81,6.22-2.19,1.7L214,242.47l10.85-8.4,1.48,1.91Z"/><path class="cls-1" d="M242.29,241.34a8.79,8.79,0,0,1-6.2-2.67l-8.21-7.4,1.86-2.07,8.13,7.33q4.63,4.18,8.31.13a5.3,5.3,0,0,0,1.59-4.07,6.78,6.78,0,0,0-2.55-4.21l-8.13-7.33,1.8-2,8.22,7.41c2.07,1.87,3.18,3.84,3.3,5.89a9.37,9.37,0,0,1-8.12,9Z"/><path class="cls-1" d="M246.3,212.3l-3.56,5.64-2-1.29,8.59-13.6,2,1.29L247.77,210l14.4,9.09-1.47,2.33Z"/><path class="cls-1" d="M267.62,205.1a8.8,8.8,0,0,1-6.74-.44l-10.22-4.22,1.06-2.57,10.12,4.18q5.78,2.38,7.87-2.67a5.28,5.28,0,0,0,.13-4.37A6.81,6.81,0,0,0,266,191.9l-10.12-4.17,1-2.5,10.22,4.23c2.59,1.06,4.29,2.55,5.1,4.44a9.39,9.39,0,0,1-4.64,11.2Z"/><path class="cls-1" d="M280.24,170.59l-6.69,2.92c-.06.52-.13.92-.19,1.21l-.95,4.71,5.8,1.18-.55,2.72-19.06-3.86,1.5-7.43a9,9,0,0,1,2.95-5.47,6.13,6.13,0,0,1,5.31-1.14,6.58,6.58,0,0,1,3.54,1.85,6.33,6.33,0,0,1,1.63,3.56l7.31-3.22Zm-9.52-.43a4,4,0,0,0-2.91-2,3.92,3.92,0,0,0-3.45.72,6.28,6.28,0,0,0-1.91,3.73l-.93,4.63,8.57,1.73.94-4.62A6.23,6.23,0,0,0,270.72,170.16Z"/><path class="cls-1" d="M279.44,145.46l2.42.06-.35,14.11-19.44-.47.33-13.72,2.42.06-.27,10.94,6,.14.23-9.75,2.36.06-.23,9.75,6.27.15Z"/></g></g></svg>