<?xml version="1.0" encoding="UTF-8"?>
<svg width="224px" height="168px" viewBox="0 0 224 168" version="1.1" xmlns="http://www.w3.org/2000/svg" xmlns:xlink="http://www.w3.org/1999/xlink">
    <!-- Generator: Sketch 55 (78076) - https://sketchapp.com -->
    <title>MathWallet_Logo_Vertical_Black</title>
    <desc>Created with Sketch.</desc>
    <g id="Page-1" stroke="none" stroke-width="1" fill="none" fill-rule="evenodd">
        <g id="A3" transform="translate(-888.000000, -314.000000)">
            <g id="MathWallet_Logo_Vertical" transform="translate(888.000000, 314.000000)">
                <rect id="Rectangle" fill="#FFFFFF" opacity="0" x="0" y="0" width="224" height="168"></rect>
                <path d="M27.5,128.42 L27.5,108.12 L31.299,108.12 L37.476,117.719 L43.653,108.12 L47.452,108.12 L47.452,128.42 L43.885,128.42 L43.885,113.862 L37.476,123.432 L37.36,123.432 L31.009,113.92 L31.009,128.42 L27.5,128.42 Z M56.624,128.739 C53.753,128.739 51.201,127.086 51.201,124.012 L51.201,123.954 C51.201,120.648 53.782,119.024 57.523,119.024 C59.234,119.024 60.452,119.285 61.641,119.662 L61.641,119.285 C61.641,117.11 60.307,115.95 57.842,115.95 C56.131,115.95 54.855,116.327 53.463,116.907 L52.535,114.152 C54.217,113.398 55.87,112.905 58.306,112.905 C60.597,112.905 62.308,113.514 63.381,114.616 C64.512,115.718 65.034,117.342 65.034,119.343 L65.034,128.42 L61.612,128.42 L61.612,126.506 C60.568,127.753 58.973,128.739 56.624,128.739 Z M57.61,126.187 C59.93,126.187 61.699,124.853 61.699,122.91 L61.699,121.866 C60.8,121.518 59.611,121.257 58.219,121.257 C55.957,121.257 54.623,122.214 54.623,123.809 L54.623,123.867 C54.623,125.346 55.928,126.187 57.61,126.187 Z M74.177,128.681 C71.596,128.681 69.769,127.55 69.769,124.186 L69.769,116.124 L67.826,116.124 L67.826,113.108 L69.769,113.108 L69.769,108.903 L73.278,108.903 L73.278,113.108 L77.396,113.108 L77.396,116.124 L73.278,116.124 L73.278,123.635 C73.278,124.998 73.974,125.549 75.163,125.549 C75.946,125.549 76.642,125.375 77.338,125.027 L77.338,127.898 C76.468,128.391 75.511,128.681 74.177,128.681 Z M80.913,128.42 L80.913,107.25 L84.422,107.25 L84.422,115.457 C85.408,114.036 86.829,112.789 89.207,112.789 C92.658,112.789 94.659,115.109 94.659,118.647 L94.659,128.42 L91.15,128.42 L91.15,119.72 C91.15,117.342 89.961,115.979 87.873,115.979 C85.843,115.979 84.422,117.4 84.422,119.778 L84.422,128.42 L80.913,128.42 Z M113.409,128.565 L106.333,108.12 L110.19,108.12 L115.033,123.171 L120.021,108.062 L123.037,108.062 L128.025,123.171 L132.868,108.12 L136.609,108.12 L129.562,128.565 L126.459,128.565 L121.471,113.978 L116.483,128.565 L113.409,128.565 Z M142.185,128.739 C139.314,128.739 136.762,127.086 136.762,124.012 L136.762,123.954 C136.762,120.648 139.343,119.024 143.084,119.024 C144.795,119.024 146.013,119.285 147.202,119.662 L147.202,119.285 C147.202,117.11 145.868,115.95 143.403,115.95 C141.692,115.95 140.416,116.327 139.024,116.907 L138.096,114.152 C139.778,113.398 141.431,112.905 143.867,112.905 C146.158,112.905 147.869,113.514 148.942,114.616 C150.073,115.718 150.595,117.342 150.595,119.343 L150.595,128.42 L147.173,128.42 L147.173,126.506 C146.129,127.753 144.534,128.739 142.185,128.739 Z M143.171,126.187 C145.491,126.187 147.26,124.853 147.26,122.91 L147.26,121.866 C146.361,121.518 145.172,121.257 143.78,121.257 C141.518,121.257 140.184,122.214 140.184,123.809 L140.184,123.867 C140.184,125.346 141.489,126.187 143.171,126.187 Z M154.953,128.42 L154.953,107.25 L158.462,107.25 L158.462,128.42 L154.953,128.42 Z M163.197,128.42 L163.197,107.25 L166.706,107.25 L166.706,128.42 L163.197,128.42 Z M178.256,128.768 C173.819,128.768 170.397,125.549 170.397,120.822 L170.397,120.764 C170.397,116.385 173.5,112.789 177.879,112.789 C182.751,112.789 185.216,116.617 185.216,121.025 C185.216,121.344 185.187,121.663 185.158,122.011 L173.906,122.011 C174.283,124.505 176.052,125.897 178.314,125.897 C180.025,125.897 181.243,125.259 182.461,124.07 L184.52,125.897 C183.07,127.637 181.069,128.768 178.256,128.768 Z M173.877,119.691 L181.736,119.691 C181.504,117.429 180.17,115.66 177.85,115.66 C175.704,115.66 174.196,117.313 173.877,119.691 Z M193.837,128.681 C191.256,128.681 189.429,127.55 189.429,124.186 L189.429,116.124 L187.486,116.124 L187.486,113.108 L189.429,113.108 L189.429,108.903 L192.938,108.903 L192.938,113.108 L197.056,113.108 L197.056,116.124 L192.938,116.124 L192.938,123.635 C192.938,124.998 193.634,125.549 194.823,125.549 C195.606,125.549 196.302,125.375 196.998,125.027 L196.998,127.898 C196.128,128.391 195.171,128.681 193.837,128.681 Z M138.847009,57.7610023 C136.569972,55.483966 136.569972,51.7921607 138.847009,49.5151245 C141.124045,47.2380882 144.81585,47.2380882 147.092886,49.5151245 C149.369923,51.7921607 149.369923,55.483966 147.092886,57.7610023 C144.81585,60.0380385 141.124045,60.0380385 138.847009,57.7610023 Z M119.263049,77.344962 C117.555272,75.6371848 117.555272,72.8683309 119.263049,71.1605537 C120.970826,69.4527765 123.73968,69.4527765 125.447457,71.1605537 C127.155234,72.8683309 127.155234,75.6371848 125.447457,77.344962 C123.73968,79.0527392 120.970826,79.0527392 119.263049,77.344962 Z M150.185091,67.0376148 C148.477313,65.3298376 148.477313,62.5609836 150.185091,60.8532064 C151.892868,59.1454292 154.661722,59.1454292 156.369499,60.8532064 C158.077276,62.5609836 158.077276,65.3298376 156.369499,67.0376148 C154.661722,68.745392 151.892868,68.745392 150.185091,67.0376148 Z M139.877743,77.344962 C138.169966,75.6371848 138.169966,72.8683309 139.877743,71.1605537 C141.58552,69.4527765 144.354374,69.4527765 146.062152,71.1605537 C147.769929,72.8683309 147.769929,75.6371848 146.062152,77.344962 C144.354374,79.0527392 141.58552,79.0527392 139.877743,77.344962 Z M161.523172,76.3142273 C160.384654,75.1757092 160.384654,73.3298065 161.523172,72.1912884 C162.661691,71.0527703 164.507593,71.0527703 165.646111,72.1912884 C166.78463,73.3298065 166.78463,75.1757092 165.646111,76.3142273 C164.507593,77.4527454 162.661691,77.4527454 161.523172,76.3142273 Z M151.215825,86.6215745 C150.077307,85.4830564 150.077307,83.6371538 151.215825,82.4986356 C152.354343,81.3601175 154.200246,81.3601175 155.338764,82.4986356 C156.477282,83.6371538 156.477282,85.4830564 155.338764,86.6215745 C154.200246,87.7600927 152.354343,87.7600927 151.215825,86.6215745 Z M128.539661,68.0683495 C126.262625,65.7913132 126.262625,62.099508 128.539661,59.8224717 C130.816698,57.5454354 134.508503,57.5454354 136.785539,59.8224717 C139.062575,62.099508 139.062575,65.7913132 136.785539,68.0683495 C134.508503,70.3453858 130.816698,70.3453858 128.539661,68.0683495 Z M128.539661,47.453655 C126.262625,45.1766187 126.262625,41.4848135 128.539661,39.2077772 C130.816698,36.9307409 134.508503,36.9307409 136.785539,39.2077772 C139.062575,41.4848135 139.062575,45.1766187 136.785539,47.453655 C134.508503,49.7306913 130.816698,49.7306913 128.539661,47.453655 Z M118.232314,57.7610023 C115.955278,55.483966 115.955278,51.7921607 118.232314,49.5151245 C120.50935,47.2380882 124.201156,47.2380882 126.478192,49.5151245 C128.755228,51.7921607 128.755228,55.483966 126.478192,57.7610023 C124.201156,60.0380385 120.50935,60.0380385 118.232314,57.7610023 Z M97.5218081,57.7610023 C95.2447719,55.483966 95.2447719,51.7921607 97.5218081,49.5151245 C99.7988444,47.2380882 103.49065,47.2380882 105.767686,49.5151245 C108.044722,51.7921607 108.044722,55.483966 105.767686,57.7610023 C103.49065,60.0380385 99.7988444,60.0380385 97.5218081,57.7610023 Z M77.9378484,77.344962 C76.2300712,75.6371848 76.2300712,72.8683309 77.9378484,71.1605537 C79.6456256,69.4527765 82.4144795,69.4527765 84.1222567,71.1605537 C85.8300339,72.8683309 85.8300339,75.6371848 84.1222567,77.344962 C82.4144795,79.0527392 79.6456256,79.0527392 77.9378484,77.344962 Z M108.85989,67.0376148 C107.152113,65.3298376 107.152113,62.5609836 108.85989,60.8532064 C110.567667,59.1454292 113.336521,59.1454292 115.044298,60.8532064 C116.752076,62.5609836 116.752076,65.3298376 115.044298,67.0376148 C113.336521,68.745392 110.567667,68.745392 108.85989,67.0376148 Z M98.5525429,77.344962 C96.8447657,75.6371848 96.8447657,72.8683309 98.5525429,71.1605537 C100.26032,69.4527765 103.029174,69.4527765 104.736951,71.1605537 C106.444728,72.8683309 106.444728,75.6371848 104.736951,77.344962 C103.029174,79.0527392 100.26032,79.0527392 98.5525429,77.344962 Z M58.3538886,76.3142273 C57.2153705,75.1757092 57.2153705,73.3298065 58.3538886,72.1912884 C59.4924067,71.0527703 61.3383094,71.0527703 62.4768275,72.1912884 C63.6153456,73.3298065 63.6153456,75.1757092 62.4768275,76.3142273 C61.3383094,77.4527454 59.4924067,77.4527454 58.3538886,76.3142273 Z M68.6612359,86.6215745 C67.5227177,85.4830564 67.5227177,83.6371538 68.6612359,82.4986356 C69.799754,81.3601175 71.6456566,81.3601175 72.7841747,82.4986356 C73.9226929,83.6371538 73.9226929,85.4830564 72.7841747,86.6215745 C71.6456566,87.7600927 69.799754,87.7600927 68.6612359,86.6215745 Z M109.890625,86.6215745 C108.752107,85.4830564 108.752107,83.6371538 109.890625,82.4986356 C111.029143,81.3601175 112.875046,81.3601175 114.013564,82.4986356 C115.152082,83.6371538 115.152082,85.4830564 114.013564,86.6215745 C112.875046,87.7600927 111.029143,87.7600927 109.890625,86.6215745 Z M67.6305011,67.0376148 C65.9227239,65.3298376 65.9227239,62.5609836 67.6305011,60.8532064 C69.3382783,59.1454292 72.1071323,59.1454292 73.8149095,60.8532064 C75.5226867,62.5609836 75.5226867,65.3298376 73.8149095,67.0376148 C72.1071323,68.745392 69.3382783,68.745392 67.6305011,67.0376148 Z M87.2144609,68.0683495 C84.9374246,65.7913132 84.9374246,62.099508 87.2144609,59.8224717 C89.4914972,57.5454354 93.1833024,57.5454354 95.4603387,59.8224717 C97.737375,62.099508 97.737375,65.7913132 95.4603387,68.0683495 C93.1833024,70.3453858 89.4914972,70.3453858 87.2144609,68.0683495 Z M87.2144609,47.453655 C84.9374246,45.1766187 84.9374246,41.4848135 87.2144609,39.2077772 C89.4914972,36.9307409 93.1833024,36.9307409 95.4603387,39.2077772 C97.737375,41.4848135 97.737375,45.1766187 95.4603387,47.453655 C93.1833024,49.7306913 89.4914972,49.7306913 87.2144609,47.453655 Z M76.9071136,57.7610023 C74.6300774,55.483966 74.6300774,51.7921607 76.9071136,49.5151245 C79.1841499,47.2380882 82.8759552,47.2380882 85.1529914,49.5151245 C87.4300277,51.7921607 87.4300277,55.483966 85.1529914,57.7610023 C82.8759552,60.0380385 79.1841499,60.0380385 76.9071136,57.7610023 Z" id="Combined-Shape" fill="#000000" fill-rule="nonzero"></path>
            </g>
        </g>
    </g>
</svg>