<svg id="Layer_1" data-name="Layer 1" xmlns="http://www.w3.org/2000/svg" viewBox="0 0 400 185"><defs><style>.cls-1{fill:#010101;}</style></defs><path class="cls-1" d="M-120.18,109.8h-23.34V70.72h23.34V47.39h-23.34V8.32h23.34V-32.39H-80V8.32h19V-32.39h40.16V8.32H2.48V47.39H-20.86V70.72H2.48V109.8H-20.86v35.81H-61V109.8H-80v35.81h-40.16ZM-61,70.72V47.39H-80V70.72Z" transform="translate(143.52 35.39)"/><path class="cls-1" d="M41.82-32q16.13,0,24.12,2.88T77.47-17.49Q81-8.76,81,9.33q0,16.32-2.71,25.24A21.85,21.85,0,0,1,67.2,48q-8.37,4.45-25.38,4.46H14.48V-32Zm-.13,64.93q7.19,0,10.59-2.83a13.36,13.36,0,0,0,4.4-8.1,83.79,83.79,0,0,0,1-14.94A47.37,47.37,0,0,0,56.56-4.8,9.16,9.16,0,0,0,52-10.71q-3.39-1.81-10.33-1.82H36.91V32.94ZM118.16,54q-15.12,0-22-7.41T89.31,22.39q0-17.21,7.25-25.81t22.1-8.6q13.74,0,21.11,7t7.37,20.6L145.37,30.3h-34a5.61,5.61,0,0,0,1.45,3.27,4.91,4.91,0,0,0,3,1.19c1.26.12,3.4.19,6.42.19s6.62-.09,10.77-.25,7-.34,8.51-.51l3.4-.37.25,15.7a87.61,87.61,0,0,1-27,4.52ZM125.72,14q0-4.89-1.51-6.59t-5.8-1.7q-4.27,0-5.67,1.7T111.23,14Zm55.56-26.5V6.69h26.95V26.16H181.28V52.41H158.85V-32h56.31v19.46Zm43.33,2.14h21.92v62.8H224.61Zm.13-25h21.92v21H224.74Zm-161,163.53v19.72H14.48V63.46H36.91v64.68ZM88.3,149.49q-10.45,0-15.55-5.34t-5.11-16.26q0-10.42,5.61-14.63t18.2-4.84l9.33-.5V105c0-1.42-.36-2.32-1.07-2.7a11.27,11.27,0,0,0-4.48-.57L83.9,102q-10.84.51-11.59.26l-.51-14.7a90.68,90.68,0,0,1,26.46-4.14q13,0,18.64,5.08T122.57,105v22.1c.08.92.17,2,.25,3.08a5.2,5.2,0,0,0,.51,2.26,2.22,2.22,0,0,0,1.38.82l-.63,16.2a71.75,71.75,0,0,1-11.65-.69,27.89,27.89,0,0,1-8.38-3.2,35,35,0,0,1-15.75,3.89Zm5-17.46a45.58,45.58,0,0,0,6.18-.63l1.26-.12v-8.67l-6.68.5a5.56,5.56,0,0,0-3.4,1.51,4.75,4.75,0,0,0-1.26,3.52Q89.44,132,93.34,132Zm73.45,17.58q-9.45,0-24.06-1.5l-5.67-.63v-86H159V86.06c.67-.25,1.8-.64,3.4-1.19a27.17,27.17,0,0,1,4.34-1.13,27.62,27.62,0,0,1,4.35-.31q12.72,0,19.09,7.78t6.36,25.25q0,17.58-7.12,25.37t-22.61,7.78ZM164.39,130q5.18,0,7.56-2.89t2.4-10.3q0-13.93-9.07-13.94-2.91,0-6.3.26v26.5a42.17,42.17,0,0,0,5.41.37Zm66.14,19.47A108,108,0,0,1,209.24,147l-4.16-.88.51-18A198.18,198.18,0,0,0,227.38,130c5,0,7.43-.37,7.43-1.13,0-.42-.5-.79-1.51-1.13a31.93,31.93,0,0,0-4.91-1l-5.67-1q-9.71-1.64-14.23-6.09T204,105.15q0-10.29,6.93-16t18.52-5.65q7.68,0,20.91,2.89l4.54.75-.26,18q-16.25-2-21.54-2a45,45,0,0,0-5.54.25c-1.26.16-1.89.54-1.89,1.13s.69,1.21,2.08,1.63a47.66,47.66,0,0,0,6.74,1.26l4.66.75q9.45,1.76,13.41,6.34t4,13.63q0,21.35-26,21.35Z" transform="translate(143.52 35.39)"/></svg>