<svg id="Layer_1" data-name="Layer 1" xmlns="http://www.w3.org/2000/svg" viewBox="0 0 648.12 77.08"><defs><style>.cls-1{fill:#f3ba2f;}</style></defs><title>logo-app</title><path class="cls-1" d="M241.52,412.66c14.6,0,23,8.45,23,19.82,0,7.61-4.8,13.87-10.85,15.85a17.3,17.3,0,0,1,13.14,17.32c0,12.09-9.18,21-23.15,21H213.88V412.66Zm-2.61,29.62c5.74,0,9.49-3,9.49-8,0-4.8-3.23-7.93-9.7-7.93h-8.76v16Zm1.36,30.87c6.36,0,10.22-3.33,10.22-8.65,0-5.11-3.76-8.66-10.22-8.66H229.94v17.31Z" transform="translate(-213.88 -411.09)"/><path class="cls-1" d="M325.07,486.61,294.61,438v48.61H278.24V412.66h20L326,457.61V412.66h16.48v73.95Z" transform="translate(-213.88 -411.09)"/><path class="cls-1" d="M386.1,412.66c14.6,0,23,8.45,23,19.82,0,7.61-4.8,13.87-10.85,15.85a17.3,17.3,0,0,1,13.14,17.32c0,12.09-9.17,21-23.15,21H358.46V412.66Zm-2.61,29.62c5.74,0,9.49-3,9.49-8,0-4.8-3.23-7.93-9.7-7.93h-8.76v16Zm1.36,30.87c6.36,0,10.22-3.33,10.22-8.65,0-5.11-3.76-8.66-10.22-8.66H374.52v17.31Z" transform="translate(-213.88 -411.09)"/><path class="cls-1" d="M418,453.66l28.16-39.41h19.61v42.53h10.85v14.69H465.79v15H449.31v-15H418ZM449.31,433l-17,23.83h17Z" transform="translate(-213.88 -411.09)"/><path class="cls-1" d="M482,466.91a19.13,19.13,0,0,1,11.47-17.59c-7-2.67-10.22-10.13-10.22-15.81,0-12.13,10.22-20.93,24.82-20.93S533,421.38,533,433.51c0,5.68-3.34,13.14-10.32,15.81a19.22,19.22,0,0,1,11.57,17.59c0,12.69-10.74,21.26-26.18,21.26S482,479.6,482,466.91Zm36.19-2c0-4.46-3.13-9.24-10.12-9.24s-10,4.78-10,9.24,3.44,9,10,9S518.16,469.25,518.16,464.91Zm-1.46-30.06c0-3.79-3-7.8-8.66-7.8s-8.65,4-8.65,7.8c0,4.34,2.81,8.35,8.65,8.46C514,443.2,516.7,439.19,516.7,434.85Z" transform="translate(-213.88 -411.09)"/><path class="cls-1" d="M593.06,449.79c0-23.05,17.52-38.7,38.18-38.7,22.21,0,32,14.29,34.42,24.93l-15.54,4.9c-1.15-5.11-5.85-13.76-18.88-13.76-9.91,0-21.07,7.09-21.07,22.63,0,13.87,10.22,21.9,21.27,21.9,12.83,0,17.95-8.55,19.41-13.87l15.75,4.49c-2.4,10.22-12.21,25.86-35.16,25.86C610.17,488.17,593.06,472.84,593.06,449.79Z" transform="translate(-213.88 -411.09)"/><path class="cls-1" d="M675.78,486.61V411.09h15.86v75.52Z" transform="translate(-213.88 -411.09)"/><path class="cls-1" d="M738.58,481.4c-2.71,4.48-8.66,6.36-13.87,6.36-12.63,0-19.72-9.18-19.72-20.24V434.77h15.86v29.41c0,5,2.71,9,8.34,9,5.32,0,8.66-3.65,8.66-8.86V434.77H753.7v42.56a82.46,82.46,0,0,0,.52,9.28H739A37.52,37.52,0,0,1,738.58,481.4Z" transform="translate(-213.88 -411.09)"/><path class="cls-1" d="M767.68,486.61V411.09h15.55v28.58c2.19-3.23,7.92-6.15,15-6.15,15,0,24.09,11.47,24.09,27,0,15.86-10.22,27.23-24.72,27.23-6.88,0-12.2-3-14.6-7v5.84Zm27.12-38.8c-6.15,0-11.78,4.07-11.78,12.83,0,8.55,5.63,12.93,11.78,12.93s11.69-4.27,11.69-12.93S801,447.81,794.8,447.81Z" transform="translate(-213.88 -411.09)"/><path class="cls-1" d="M844.61,412a17.37,17.37,0,1,1-17.34,17.38A17.44,17.44,0,0,1,844.61,412Zm0,30.88a13.52,13.52,0,1,0-13.17-13.5A13.21,13.21,0,0,0,844.61,442.89Zm-.19-10.54H843v6.28h-4.88V420H846a6.23,6.23,0,0,1,6.42,6.14,6,6,0,0,1-3.33,5.39l3.57,7.13h-5.35Zm.61-3.94a2.2,2.2,0,0,0,2.44-2.25,2.17,2.17,0,0,0-2.44-2.25h-2v4.5Z" transform="translate(-213.88 -411.09)"/><rect x="552.84" y="439.55" width="22.82" height="22.82" transform="translate(-367.49 119.97) rotate(-45)"/></svg>