<svg width="117" height="24" viewBox="0 0 117 24" fill="none" xmlns="http://www.w3.org/2000/svg">
<path fill-rule="evenodd" clip-rule="evenodd" d="M0.0447845 12.9953C0.0157242 12.6559 0 12.3127 0 11.9658C0 5.36786 5.37386 0 11.9791 0C18.5845 0 23.9584 5.36786 23.9584 11.9658C23.9584 18.5638 18.5845 23.9317 11.9791 23.9317C10.6401 23.9317 9.35178 23.711 8.10652 23.2918C8.0498 23.2725 7.99372 23.2518 7.93488 23.2301C7.9111 23.2214 7.88688 23.2124 7.86198 23.2034C4.42373 21.9472 1.79712 19.2103 0.643951 15.8377C0.631996 15.8029 0.620422 15.768 0.608849 15.733C0.580048 15.6463 0.551865 15.5595 0.52507 15.4719C0.498528 15.3856 0.47274 15.299 0.448082 15.2118C0.436623 15.1709 0.425591 15.1297 0.414558 15.0886L0.407707 15.063C0.385185 14.9794 0.363678 14.8952 0.343048 14.8108C0.33696 14.7861 0.330765 14.7615 0.32473 14.7369C0.321777 14.7248 0.318855 14.7127 0.316002 14.7006C0.287193 14.5776 0.260269 14.4539 0.222282 14.2621C0.199509 14.1458 0.178375 14.0286 0.150078 13.8565C0.105797 13.5794 0.0714493 13.2993 0.0447845 12.9953ZM15.4533 10.3886C15.5689 10.6411 15.6448 10.8888 15.681 11.1315C15.7417 11.3999 15.7745 11.6794 15.7745 11.9658C15.7745 12.9586 15.395 13.8931 14.7048 14.6041C14.6749 14.6368 14.6431 14.6682 14.6094 14.6981C14.5449 14.7602 14.4791 14.8194 14.4134 14.8743C12.2197 16.8617 10.625 19.3946 9.79018 22.2134C9.75483 22.3329 9.83081 22.4587 9.95321 22.4822C10.6094 22.608 11.2863 22.6751 11.9791 22.6751C17.9002 22.6751 22.7004 17.8805 22.7004 11.9658C22.7004 11.3965 22.6534 10.8385 22.5672 10.2934C22.5655 10.2827 22.563 10.2724 22.5598 10.2625C22.2959 9.16446 22.1564 8.59323 22.1414 8.54882C20.7136 4.3101 16.704 1.25655 11.9791 1.25655C6.40816 1.25655 1.8307 5.50118 1.30865 10.9291C1.29179 11.105 1.48615 11.225 1.63484 11.1293C4.63922 9.19306 8.08841 8.17538 11.6891 8.1755C11.7538 8.1755 11.8193 8.17588 11.8844 8.17651C11.9159 8.1755 11.9474 8.17475 11.9791 8.17475C13.2132 8.17475 14.3108 8.76659 15.0044 9.68035C15.0072 9.68406 15.0122 9.69025 15.019 9.69879C15.0807 9.77585 15.2952 10.0436 15.4533 10.3886ZM8.57574 21.8846C9.49544 18.7599 11.2606 16.0274 13.5888 13.925C13.6448 13.8791 13.6985 13.8305 13.7741 13.7587C14.2327 13.2991 14.5166 12.6655 14.5166 11.9658C14.5166 10.5661 13.3805 9.4313 11.9791 9.4313C11.957 9.4313 11.9351 9.43206 11.913 9.43282L11.8984 9.43331C11.8287 9.43256 11.7586 9.43205 11.6891 9.43205C7.87167 9.43193 4.29781 10.6811 1.39633 12.8191L1.31029 13.0111C1.31583 13.0666 1.32186 13.122 1.32815 13.1773C1.77775 17.1529 4.54374 20.6553 8.30088 22.0262C8.41573 22.0681 8.54128 22.0017 8.57574 21.8846Z" fill="black"/>
<path d="M35.6272 14.9145H32.4364C32.4364 17.6888 34.607 19.68 37.863 19.68C40.5112 19.68 43.2028 18.2258 43.2462 15.1606C43.2896 13.684 42.7686 11.581 39.1437 10.5071L37.3637 9.92537C35.9094 9.50028 35.7575 8.76197 35.7575 8.35925C35.7575 7.44196 36.5823 6.81552 37.6893 6.81552C38.9483 6.81552 39.6212 7.53145 39.6212 8.56061H42.7903C42.7903 5.60738 40.6197 3.83991 37.7327 3.83991C34.8675 3.83991 32.5883 5.69687 32.5883 8.44875C32.5883 9.83587 33.1527 11.8271 36.4521 12.8786L38.2537 13.3932C39.7731 13.8406 40.077 14.4447 40.0553 15.1383C40.0336 16.1451 39.1437 16.7715 37.863 16.7715C36.4304 16.7715 35.6706 15.899 35.6272 14.9145Z" fill="black"/>
<path d="M56.9921 18.84L60.6681 8.87994H57.3508L55.4904 14.809L53.6524 8.87994H50.9851L49.1471 14.809L47.2867 8.87994H43.9694L47.7574 18.84H50.3575L52.3299 12.5057L54.3921 18.84H56.9921Z" fill="black"/>
<path d="M65.8339 18.84V8.87994H62.4701V18.84H65.8339Z" fill="black"/>
<path d="M63.6952 3.1199C62.5791 3.1199 61.6292 3.84138 61.6292 4.78961C61.6292 5.73783 62.5791 6.47992 63.6952 6.47992C64.8114 6.47992 65.7138 5.73783 65.7138 4.78961C65.7138 3.84138 64.8114 3.1199 63.6952 3.1199Z" fill="black"/>
<path d="M71.2311 19.08V13.4254C71.2311 11.8 72.0601 11.2505 73.1581 11.2505C74.2112 11.2505 74.9731 11.9602 74.9731 13.3796V19.08H78.0877V12.6928C78.0877 9.64799 76.6088 8.15993 74.256 8.15993C73.0237 8.15993 71.7912 8.86962 71.2311 9.9456V8.38886H68.1165V19.08H71.2311Z" fill="black"/>
<path fill-rule="evenodd" clip-rule="evenodd" d="M84.9628 21.2113C83.9624 21.2113 82.7918 20.4974 82.4513 19.538C82.0788 19.7277 81.669 19.9397 81.2592 20.1516C80.8496 20.3636 80.4399 20.5755 80.0675 20.7651C80.8976 22.706 82.7706 24 84.9628 24C88.4959 24 90.5817 21.836 90.5817 17.3516V8.38303H87.7084V9.67701C87.2189 8.71768 85.9631 8.15993 84.7287 8.15993C82.1746 8.15993 79.7696 10.2794 79.7696 13.6259C79.7696 16.9054 82.1746 19.0249 84.7287 19.0249C85.9631 19.0249 87.2402 18.4671 87.7084 17.5078C87.8361 19.5826 87.2189 21.2113 84.9628 21.2113ZM85.7053 11.3999C86.975 11.3999 88.179 12.3 88.179 13.875C88.179 15.405 86.9531 16.44 85.7053 16.44C84.4137 16.44 83.2535 15.45 83.2535 13.875C83.2535 12.39 84.4137 11.3999 85.7053 11.3999Z" fill="black"/>
<path fill-rule="evenodd" clip-rule="evenodd" d="M94.0656 18.7433H97.0438V17.4865C97.5402 18.4183 98.7487 18.96 100 18.96C102.59 18.96 104.878 16.9014 104.878 13.7161C104.878 10.4657 102.59 8.40715 100 8.40715C98.7487 8.40715 97.5402 8.92721 97.0438 9.85898V3.1199H94.0656V18.7433ZM99.1713 16.44C97.8488 16.44 96.7086 15.405 96.7086 13.8975C96.7086 12.3225 97.8716 11.3999 99.1713 11.3999C100.517 11.3999 101.634 12.39 101.634 13.8975C101.634 15.45 100.517 16.44 99.1713 16.44Z" fill="black"/>
<path d="M110.34 24L116.531 8.75993H113.35L111.114 14.5626L108.9 8.75993H105.719L109.588 17.9346L107.18 24H110.34Z" fill="black"/>
</svg>
