<svg width="96" height="96" viewBox="0 0 96 96" fill="none" xmlns="http://www.w3.org/2000/svg">
<path d="M48 96C74.5097 96 96 74.5097 96 48C96 21.4903 74.5097 0 48 0C21.4903 0 0 21.4903 0 48C0 74.5097 21.4903 96 48 96Z" fill="url(#paint0_linear_817_5192)"/>
<path fill-rule="evenodd" clip-rule="evenodd" d="M47.8581 79.8746C38.5164 79.8675 30.9915 77.6259 25.7338 73.5996C20.413 69.5249 17.5903 63.7426 17.5903 57.1998C17.5903 50.8954 20.4068 46.3494 23.5936 43.2766C26.0911 40.8685 28.8471 39.3262 30.7661 38.4391C30.3322 37.1073 29.7907 35.3637 29.3063 33.5629C28.6582 31.1531 28.0223 28.3258 28.0223 26.254C28.0223 23.8017 28.557 21.3389 29.9986 19.4252C31.5217 17.4034 33.8146 16.3203 36.5731 16.3203C38.7289 16.3203 40.5593 17.1199 41.9922 18.4995C43.3619 19.8181 44.2735 21.5694 44.9029 23.3949C46.0089 26.6026 46.4396 30.6327 46.5604 34.6545H49.2026C49.3234 30.6327 49.754 26.6026 50.8601 23.3949C51.4895 21.5694 52.4011 19.8181 53.7708 18.4995C55.2037 17.1199 57.034 16.3203 59.1899 16.3203C61.9484 16.3203 64.2413 17.4034 65.7644 19.4252C67.206 21.3389 67.7407 23.8017 67.7407 26.254C67.7407 28.3258 67.1048 31.1531 66.4566 33.5629C65.9722 35.3637 65.4308 37.1073 64.9968 38.4391C66.9159 39.3262 69.6719 40.8685 72.1693 43.2766C75.3562 46.3494 78.1726 50.8954 78.1726 57.1998C78.1726 63.7426 75.35 69.5249 70.0292 73.5996C64.7715 77.6259 57.2466 79.8675 47.9049 79.8746H47.8581Z" fill="#633001"/>
<path d="M36.573 18.6523C32.5327 18.6523 30.6729 21.6972 30.6729 25.9083C30.6729 29.2554 32.8339 35.9589 33.7205 38.5685C33.9199 39.1554 33.6065 39.7985 33.0351 40.0261C29.797 41.3159 20.241 46.0385 20.241 56.8541C20.241 68.2472 29.952 76.8375 47.86 76.8511C47.8671 76.8511 47.8742 76.8511 47.8814 76.8511C47.8885 76.8511 47.8956 76.8511 47.9028 76.8511C65.8107 76.8375 75.5218 68.2472 75.5218 56.8541C75.5218 46.0385 65.9658 41.3159 62.7277 40.0261C62.1562 39.7985 61.8429 39.1554 62.0423 38.5685C62.9289 35.9589 65.0898 29.2554 65.0898 25.9083C65.0898 21.6972 63.23 18.6523 59.1898 18.6523C53.374 18.6523 51.9243 26.9746 51.8209 35.9065C51.814 36.5028 51.3368 36.9866 50.7465 36.9866H45.0163C44.4259 36.9866 43.9488 36.5028 43.9419 35.9065C43.8385 26.9746 42.3887 18.6523 36.573 18.6523Z" fill="#D1884F"/>
<path d="M47.9028 73.2028C34.7449 73.2028 20.2637 66.0876 20.241 56.877C20.241 56.8914 20.241 56.9058 20.241 56.9201C20.241 68.3224 29.9675 76.9171 47.9028 76.9171C65.838 76.9171 75.5645 68.3224 75.5645 56.9201C75.5645 56.9058 75.5645 56.8914 75.5645 56.877C75.5418 66.0876 61.0607 73.2028 47.9028 73.2028Z" fill="#FEDC90"/>
<path d="M40.5919 54.0477C40.5919 57.1574 39.1371 58.777 37.3426 58.777C35.548 58.777 34.0933 57.1574 34.0933 54.0477C34.0933 50.938 35.548 49.3184 37.3426 49.3184C39.1371 49.3184 40.5919 50.938 40.5919 54.0477Z" fill="#633001"/>
<path d="M61.7122 54.0477C61.7122 57.1574 60.2575 58.777 58.4629 58.777C56.6684 58.777 55.2136 57.1574 55.2136 54.0477C55.2136 50.938 56.6684 49.3184 58.4629 49.3184C60.2575 49.3184 61.7122 50.938 61.7122 54.0477Z" fill="#633001"/>
<defs>
<linearGradient id="paint0_linear_817_5192" x1="48" y1="0" x2="48" y2="96" gradientUnits="userSpaceOnUse">
<stop stop-color="#53DEE9"/>
<stop offset="1" stop-color="#1FC7D4"/>
</linearGradient>
</defs>
</svg>
