<svg width="104" height="92" viewBox="0 0 104 92" fill="none" xmlns="http://www.w3.org/2000/svg">
<path d="M66.2545 0L53.0037 22.9967H26.502L36.0797 6.38058C37.1959 4.441 38.8014 2.8303 40.7347 1.71029C42.6681 0.590285 44.8612 0.000430192 47.0938 0H66.2545Z" fill="#1B72F5"/>
<path d="M0.00390625 69.0132H53.0073L57.4384 76.7018L61.4349 83.6407L66.2529 91.9886H20.5904C18.3579 91.9882 16.1648 91.3983 14.2314 90.2783C12.2981 89.1583 10.6926 87.5476 9.57635 85.608L8.8396 84.3319L8.42615 83.6194L8.22474 83.2685L4.63643 77.0314L4.43502 76.6805L0.00390625 69.0132Z" fill="#1B72F5"/>
<path d="M66.2559 91.9889L79.5067 68.9976L92.7576 91.9942L66.2559 91.9889Z" fill="#D1E3FF"/>
<path d="M79.5056 23.0182L66.2548 46.0149L53.0039 23.0182L66.2548 0.0214844L79.5056 23.0182Z" fill="#A0BEEB"/>
<path d="M66.2559 46.0128L79.5067 23.0161L102.298 62.6236C103.415 64.5635 104.002 66.7641 104.002 69.0042C104.002 71.2442 103.415 73.4448 102.298 75.3847L92.7576 91.9955L79.5067 68.9988L66.2559 46.0128Z" fill="#1B72F5"/>
<path d="M66.2545 46.0128H39.7528L26.502 23.0161H53.0037L66.2545 46.0128Z" fill="#D1E3FF"/>
<path d="M26.5059 69.0113L39.7567 46.0146H66.2584L53.0076 69.0113H26.5059Z" fill="#D1E3FF"/>
<path d="M39.7526 46.0128L26.5017 69.0095H0L26.5017 23.0161L39.7526 46.0128Z" fill="#A0BEEB"/>
<path d="M53.0098 69.0094L66.2606 46.0127L79.5115 69.0094L66.2606 92.0007L61.4426 83.6369L57.4462 76.698L53.0098 69.0094Z" fill="#A0BEEB"/>
</svg>
