<?xml version="1.0" encoding="UTF-8"?>
<svg width="242px" height="80px" viewBox="0 0 242 80" version="1.1" xmlns="http://www.w3.org/2000/svg" xmlns:xlink="http://www.w3.org/1999/xlink">
    <title>logo/logo trans</title>
    <defs>
        <linearGradient x1="0%" y1="57.5091105%" x2="100%" y2="57.5091105%" id="linearGradient-1">
            <stop stop-color="#7983FF" offset="0%"></stop>
            <stop stop-color="#00F8FF" offset="100%"></stop>
        </linearGradient>
        <linearGradient x1="0%" y1="57.5091105%" x2="100%" y2="57.5091105%" id="linearGradient-2">
            <stop stop-color="#7983FF" offset="0%"></stop>
            <stop stop-color="#00F8FF" offset="100%"></stop>
        </linearGradient>
        <linearGradient x1="0%" y1="57.5091105%" x2="100%" y2="57.5091105%" id="linearGradient-3">
            <stop stop-color="#7983FF" offset="0%"></stop>
            <stop stop-color="#00F8FF" offset="100%"></stop>
        </linearGradient>
        <linearGradient x1="0%" y1="57.5091105%" x2="100%" y2="57.5091105%" id="linearGradient-4">
            <stop stop-color="#7983FF" offset="0%"></stop>
            <stop stop-color="#00F8FF" offset="100%"></stop>
        </linearGradient>
    </defs>
    <g id="Page-1" stroke="none" stroke-width="1" fill="none" fill-rule="evenodd">
        <g id="logo/logo-trans" transform="translate(0.000000, 0.000000)">
            <path d="M62.6586024,46.2963859 L73.858935,58.0621331 L73.9651552,63.15905 L62.9064496,51.5349167 L18.5193781,73.8992772 L18.4001755,68.5993804 L62.6586024,46.2963859 Z M3.36364045,53.9430594 L6.48061393,57.2119782 L7.33037573,58.1088656 L10.3977798,61.3305797 L10.8238409,61.7778433 L11.2487218,62.2274672 L17.2194786,68.4938782 L17.3386813,73.6037764 L8.0503128,63.8324237 L7.62543191,63.394601 L7.19937078,62.9461573 L4.13196674,59.7268034 L3.28220494,58.8275557 L0.165231461,55.5480159 L3.36364045,53.9430594 Z M84.1274801,53.5779318 L87.5855386,57.2126862 L84.882824,58.5686384 L84.3399206,58.8518661 L83.785215,59.1232925 L81.2477318,60.4107981 L80.7048284,60.6810444 L80.1501228,60.964272 L75.1695745,63.4672961 L75.0397498,58.1685794 L76.6908842,57.3306977 L77.2455898,57.04629 L77.7896734,56.7760437 L80.3259763,55.5015194 L80.8818622,55.2182918 L81.4247655,54.9468653 L84.1274801,53.5779318 Z M36.7047527,19.0233368 L38.3936543,20.8053105 L35.1952453,22.4220682 L33.4957217,20.6400944 L36.7047527,19.0233368 Z" id="Combined-Shape-Copy-13" fill-opacity="0.5" fill="url(#linearGradient-1)"></path>
            <path d="M62.493489,38.9081575 L73.6820193,50.6739047 L73.7292283,52.5030831 L73.7398503,53.3775483 L73.764635,54.2626346 L73.811844,56.3030535 L62.9065676,44.8441363 L18.3648867,67.2899248 L18.235062,61.2123322 L60.2392597,40.041068 L60.7939654,39.7696415 L61.3368687,39.4864139 L62.493489,38.9081575 Z M3.6716791,47.0877711 L7.1285573,50.7095442 L7.5534382,51.1697891 L7.56524045,51.1697891 L7.9783191,51.6064316 L11.1070948,54.8859714 L11.5319757,55.3367753 L11.9556764,55.7722378 L15.0242607,59.0057531 L15.4491416,59.4530167 L15.8752027,59.8908394 L17.0554274,61.1299602 L17.1840719,66.748488 L12.3569528,61.671633 L11.9332521,61.2243694 L11.507191,60.7759257 L8.43860674,57.5530314 L8.01372584,57.1057678 L7.58884494,56.6573241 L4.47305168,53.3766042 L4.04817078,52.9399616 L3.61266786,52.4797168 L0.165231461,48.8567635 L3.6716791,47.0877711 Z M83.6322578,46.3657767 L87.5860106,50.5209618 L84.3864214,52.1365393 L83.832896,52.4079658 L83.2770102,52.6923735 L80.5754758,54.0495058 L80.0313922,54.3209323 L79.4766866,54.6029798 L76.9403837,55.8786842 L76.3963001,56.1607317 L75.8415945,56.4333383 L75.0154372,56.8463785 L74.9800304,55.5364508 L74.9682282,54.6513645 L74.9458039,53.7887004 L74.8738102,50.7923883 L75.534736,50.461956 L76.0776394,50.1775483 L76.632345,49.907302 L79.3350596,48.5383685 L79.8909455,48.266942 L80.4326686,47.9837144 L83.6322578,46.3657767 Z M37.0359238,12.1671043 L40.4939822,15.8018587 L40.9188631,16.2491223 L41.343744,16.686945 L43.0314653,18.4689187 L39.4907912,20.2508925 L37.8030698,18.4689187 L37.3781889,18.0322761 L36.953308,17.5838324 L33.4952496,13.949078 L37.0359238,12.1671043 Z" id="Combined-Shape-Copy-14" fill-opacity="0.7" fill="url(#linearGradient-2)"></path>
            <path d="M62.6587204,52.9871662 L74.0124822,64.9181295 L74.1069002,69.2255495 L63.0717991,57.6250184 L18.6599429,80 L18.5537227,75.2087329 L62.6587204,52.9871662 Z M3.02184737,60.2798053 L6.09161186,63.5015194 L6.94019343,64.399587 L17.3733799,75.3498746 L17.384002,75.374657 L17.4796002,79.6572946 L4.24928108,65.7555392 L3.82440018,65.3070954 L3.39951928,64.8586517 L0.330935011,61.6381177 L3.02184737,60.2798053 Z M84.646543,60.020416 L87.750534,63.2893347 L85.2130508,64.5756601 L84.6701475,64.8482667 L84.1154418,65.1314943 L75.2991632,69.5675468 L75.192943,64.7762797 L80.9984684,61.8613955 L81.553174,61.5769878 L82.0960773,61.3067414 L84.646543,60.020416 Z" id="Combined-Shape-Copy-15" fill-opacity="0.3" fill="url(#linearGradient-3)"></path>
            <polygon id="Fill-14-Copy" fill="url(#linearGradient-4)" points="46.3604072 0 33.3307263 6.57324089 37.2832989 10.7154448 38.1330607 11.6123322 41.5922993 15.2470866 42.016 15.6837292 42.4420611 16.1321729 44.9913465 18.8110341 40.3530633 21.1476619 39.7971775 21.4308895 39.2424719 21.7034961 36.0440629 23.3190736 35.4893573 23.6023012 34.9464539 23.8737277 0 41.4810444 3.94195056 45.6232483 4.37863371 46.071692 4.80469483 46.5201357 8.25095101 50.143089 8.67465168 50.6033338 9.1007128 51.0399764 12.2283083 54.3218764 12.652009 54.76914 13.0768899 55.2175837 16.1466544 58.4392978 16.570355 58.8889217 16.9952359 59.3243841 17.762382 60.1386635 59.3889078 39.1550376 59.9436134 38.8729901 60.4865168 38.6015637 62.7419263 37.4686532 74.378942 49.681664 74.6621959 49.5424104 75.2039191 49.2580027 75.7598049 48.9865762 78.4613393 47.630624 79.0172251 47.3462163 79.5601285 47.0629886 82.7573573 45.456852 83.3120629 45.1748045 83.879751 44.8915769 87.4074426 43.1214043"></polygon>
            <path d="M110.66697,39.1049364 L110.66697,20.5222706 L117.455587,20.5222706 L117.455587,16.9559004 L99.9365754,16.9559004 L99.9365754,20.5222706 L106.725192,20.5222706 L106.725192,39.1049364 L110.66697,39.1049364 Z M123.555957,39.1049364 L123.555957,31.0649615 C123.555957,30.8564018 123.602883,30.5435623 123.696735,30.126443 C123.790587,29.7093237 123.97829,29.2922043 124.259846,28.875085 C124.541401,28.4579657 124.948093,28.0877723 125.47992,27.7645048 C126.011747,27.4412373 126.715636,27.2796036 127.591586,27.2796036 C127.88357,27.2796036 128.180767,27.3056736 128.483179,27.3578135 C128.78559,27.4099534 129.093216,27.4777353 129.406055,27.5611592 L129.406055,27.5611592 L129.406055,23.9322211 C129.17664,23.8696532 128.952438,23.8175132 128.733451,23.7758013 C128.514463,23.7340894 128.290261,23.7132334 128.060846,23.7132334 C127.059759,23.7132334 126.173381,23.953077 125.40171,24.4327642 C124.630039,24.9124515 124.035644,25.5902704 123.618525,26.4662209 L123.618525,26.4662209 L123.555957,26.4662209 L123.555957,24.0886408 L119.801883,24.0886408 L119.801883,39.1049364 L123.555957,39.1049364 Z M136.444944,39.4803438 C137.44603,39.4803438 138.363693,39.2874261 139.197931,38.9015907 C140.03217,38.5157553 140.720417,37.8952903 141.262672,37.0401957 L141.262672,37.0401957 L141.356524,37.0401957 L141.356524,39.1049364 L144.73519,39.1049364 L144.73519,30.4705664 C144.73519,30.116015 144.724763,29.7041097 144.703907,29.2348504 C144.683051,28.7655912 144.615269,28.28069 144.500561,27.7801468 C144.385853,27.2796036 144.198149,26.7842744 143.93745,26.2941592 C143.67675,25.804044 143.306557,25.3712827 142.82687,24.9958753 C142.347182,24.6204679 141.742359,24.3128424 141.012401,24.0729988 C140.282442,23.8331552 139.385635,23.7132334 138.321981,23.7132334 C137.133191,23.7132334 135.980899,23.9009371 134.865105,24.2763445 C133.74931,24.6517519 132.774294,25.2670029 131.940055,26.1220975 L131.940055,26.1220975 L133.910944,28.0929863 C134.411487,27.6132991 135.005882,27.2326777 135.694129,26.9511221 C136.382376,26.6695666 137.122763,26.5287888 137.91529,26.5287888 C138.916376,26.5287888 139.740187,26.7634185 140.386722,27.2326777 C141.033257,27.7019369 141.356524,28.4058258 141.356524,29.3443443 L141.356524,29.3443443 L141.356524,29.7510356 L140.418006,29.7510356 C139.792327,29.7510356 139.124936,29.7666776 138.415833,29.7979615 C137.70673,29.8292455 137.002841,29.9022413 136.304166,30.0169492 C135.605491,30.131657 134.932886,30.3037187 134.286351,30.5331343 C133.639817,30.7625499 133.071491,31.0701754 132.581376,31.4560108 C132.091261,31.8418462 131.700212,32.3215334 131.408228,32.8950725 C131.116245,33.4686115 130.970253,34.1620724 130.970253,34.9754551 C130.970253,35.7262699 131.126673,36.3832328 131.439512,36.9463439 C131.752352,37.509455 132.164257,37.9787142 132.675228,38.3541216 C133.186199,38.729529 133.770166,39.0110845 134.427129,39.1987882 C135.084092,39.3864919 135.756697,39.4803438 136.444944,39.4803438 Z M137.352178,36.6647883 C137.039339,36.6647883 136.7265,36.6282904 136.41366,36.5552945 C136.100821,36.4822986 135.819265,36.3623768 135.568993,36.1955291 C135.318722,36.0286814 135.115376,35.8253357 134.958956,35.5854921 C134.802537,35.3456485 134.724327,35.048451 134.724327,34.6938995 C134.724327,34.1516444 134.922458,33.7293111 135.318722,33.4268996 C135.714985,33.1244881 136.199886,32.8950725 136.773425,32.7386527 C137.346965,32.582233 137.957002,32.4831671 138.603536,32.4414552 C139.250071,32.3997433 139.834038,32.3788873 140.355438,32.3788873 L140.355438,32.3788873 L141.137536,32.3788873 L141.137536,33.2235539 C141.137536,34.2872082 140.829911,35.1266608 140.21466,35.7419118 C139.599409,36.3571628 138.645248,36.6647883 137.352178,36.6647883 Z M152.524894,39.1049364 L152.524894,30.9085417 C152.524894,30.4079985 152.587462,29.9283113 152.712598,29.46948 C152.837733,29.0106488 153.041079,28.6039575 153.322635,28.249406 C153.60419,27.8948546 153.958741,27.6132991 154.386289,27.4047394 C154.813836,27.1961797 155.340449,27.0918999 155.966128,27.0918999 C156.612663,27.0918999 157.123634,27.2431057 157.499042,27.5455172 C157.874449,27.8479287 158.150791,28.2233361 158.328066,28.6717393 C158.505342,29.1201426 158.614836,29.5998298 158.656548,30.110801 C158.69826,30.6217722 158.719116,31.0858174 158.719116,31.5029367 L158.719116,31.5029367 L158.719116,39.1049364 L162.47319,39.1049364 L162.47319,29.6258998 C162.47319,28.854229 162.379338,28.1138423 162.191634,27.4047394 C162.00393,26.6956366 161.691091,26.0699576 161.253116,25.5277025 C160.81514,24.9854473 160.246815,24.5474721 159.54814,24.2137766 C158.849466,23.8800811 157.999585,23.7132334 156.998499,23.7132334 C155.747141,23.7132334 154.756482,23.989575 154.026523,24.5422581 C153.296565,25.0949412 152.754309,25.7466901 152.399758,26.4975049 L152.399758,26.4975049 L152.33719,26.4975049 L152.33719,24.0886408 L148.77082,24.0886408 L148.77082,39.1049364 L152.524894,39.1049364 Z M174.142103,39.4803438 C174.475798,39.4803438 174.872061,39.4438458 175.330893,39.3708499 C175.789724,39.2978541 176.269411,39.1779322 176.769954,39.0110845 C177.270498,38.8442368 177.765827,38.6252491 178.255942,38.3541216 C178.746057,38.082994 179.178818,37.7597266 179.554226,37.3843192 L179.554226,37.3843192 L177.05151,34.6938995 C176.696958,35.1527308 176.269411,35.5020682 175.768868,35.7419118 C175.268325,35.9817554 174.72607,36.1016773 174.142103,36.1016773 C173.453856,36.1016773 172.838605,35.9765415 172.29635,35.7262699 C171.754095,35.4759983 171.290049,35.1423028 170.904214,34.7251835 C170.518379,34.3080642 170.226395,33.828377 170.028263,33.2861218 C169.830132,32.7438667 169.731066,32.1807556 169.731066,31.5967886 C169.731066,31.0128215 169.830132,30.4497105 170.028263,29.9074553 C170.226395,29.3652002 170.518379,28.885513 170.904214,28.4683937 C171.290049,28.0512744 171.754095,27.7175789 172.29635,27.4673073 C172.838605,27.2170357 173.453856,27.0918999 174.142103,27.0918999 C174.642646,27.0918999 175.132761,27.2274637 175.612448,27.4985913 C176.092135,27.7697188 176.550967,28.1346982 176.988942,28.5935295 L176.988942,28.5935295 L179.58551,25.9969617 C178.855551,25.204435 178.00567,24.6256819 177.035868,24.2607025 C176.066066,23.8957231 175.101477,23.7132334 174.142103,23.7132334 C173.01588,23.7132334 171.952226,23.9009371 170.95114,24.2763445 C169.950053,24.6517519 169.084531,25.183579 168.354572,25.8718259 C167.624613,26.5600728 167.04586,27.3890974 166.618313,28.3588999 C166.190766,29.3287023 165.976992,30.4079985 165.976992,31.5967886 C165.976992,32.7855787 166.190766,33.8648749 166.618313,34.8346773 C167.04586,35.8044797 167.624613,36.6335044 168.354572,37.3217513 C169.084531,38.0099981 169.950053,38.5418253 170.95114,38.9172327 C171.952226,39.2926401 173.01588,39.4803438 174.142103,39.4803438 Z M185.560744,39.1049364 L185.560744,30.9085417 C185.560744,30.4079985 185.623312,29.9283113 185.748448,29.46948 C185.873584,29.0106488 186.076929,28.6039575 186.358485,28.249406 C186.64004,27.8948546 186.994592,27.6132991 187.422139,27.4047394 C187.849686,27.1961797 188.376299,27.0918999 189.001978,27.0918999 C189.648513,27.0918999 190.159485,27.2431057 190.534892,27.5455172 C190.910299,27.8479287 191.186641,28.2233361 191.363917,28.6717393 C191.541192,29.1201426 191.650686,29.5998298 191.692398,30.110801 C191.73411,30.6217722 191.754966,31.0858174 191.754966,31.5029367 L191.754966,31.5029367 L191.754966,39.1049364 L195.50904,39.1049364 L195.50904,29.6258998 C195.50904,28.854229 195.415188,28.1138423 195.227484,27.4047394 C195.039781,26.6956366 194.726941,26.0699576 194.288966,25.5277025 C193.850991,24.9854473 193.282665,24.5474721 192.583991,24.2137766 C191.885316,23.8800811 191.035435,23.7132334 190.034349,23.7132334 C188.866415,23.7132334 187.912254,23.968719 187.171867,24.4796902 C186.431481,24.9906613 185.915295,25.5589864 185.623312,26.1846654 L185.623312,26.1846654 L185.560744,26.1846654 L185.560744,15.4542709 L181.80667,15.4542709 L181.80667,39.1049364 L185.560744,39.1049364 Z M201.671978,21.2418014 C202.360225,21.2418014 202.938978,21.0280278 203.408237,20.6004805 C203.877496,20.1729332 204.112126,19.635892 204.112126,18.9893571 C204.112126,18.3428222 203.877496,17.805781 203.408237,17.3782337 C202.938978,16.9506864 202.360225,16.7369128 201.671978,16.7369128 C200.983731,16.7369128 200.415406,16.9611144 199.967003,17.4095177 C199.518599,17.8579209 199.294398,18.3845341 199.294398,18.9893571 C199.294398,19.5941801 199.518599,20.1207933 199.967003,20.5691965 C200.415406,21.0175998 200.983731,21.2418014 201.671978,21.2418014 Z M203.580299,39.1049364 L203.580299,24.0886408 L199.826225,24.0886408 L199.826225,39.1049364 L203.580299,39.1049364 Z M211.651558,39.1049364 L211.651558,30.9085417 C211.651558,30.4079985 211.714125,29.9283113 211.839261,29.46948 C211.964397,29.0106488 212.167743,28.6039575 212.449298,28.249406 C212.730854,27.8948546 213.085405,27.6132991 213.512953,27.4047394 C213.9405,27.1961797 214.467113,27.0918999 215.092792,27.0918999 C215.739327,27.0918999 216.250298,27.2431057 216.625706,27.5455172 C217.001113,27.8479287 217.277454,28.2233361 217.45473,28.6717393 C217.632006,29.1201426 217.7415,29.5998298 217.783212,30.110801 C217.824924,30.6217722 217.84578,31.0858174 217.84578,31.5029367 L217.84578,31.5029367 L217.84578,39.1049364 L221.599853,39.1049364 L221.599853,29.6258998 C221.599853,28.854229 221.506002,28.1138423 221.318298,27.4047394 C221.130594,26.6956366 220.817755,26.0699576 220.379779,25.5277025 C219.941804,24.9854473 219.373479,24.5474721 218.674804,24.2137766 C217.976129,23.8800811 217.126249,23.7132334 216.125162,23.7132334 C214.873804,23.7132334 213.883146,23.989575 213.153187,24.5422581 C212.423228,25.0949412 211.880973,25.7466901 211.526422,26.4975049 L211.526422,26.4975049 L211.463854,26.4975049 L211.463854,24.0886408 L207.897484,24.0886408 L207.897484,39.1049364 L211.651558,39.1049364 Z M232.830791,46.6130842 C234.290709,46.6130842 235.552495,46.4045245 236.616149,45.9874052 C237.679803,45.5702858 238.560968,44.9811048 239.259643,44.219862 C239.958318,43.4586193 240.474503,42.5305288 240.808198,41.4355906 C241.141894,40.3406524 241.308741,39.1153644 241.308741,37.7597266 L241.308741,37.7597266 L241.308741,24.0886408 L237.742371,24.0886408 L237.742371,26.3410851 L237.679803,26.3410851 C237.137548,25.4234226 236.407589,24.7560317 235.489927,24.3389124 C234.572264,23.9217931 233.581606,23.7132334 232.517952,23.7132334 C231.350018,23.7132334 230.312433,23.9165791 229.405199,24.3232704 C228.497964,24.7299618 227.721079,25.2878589 227.074544,25.9969617 C226.42801,26.7060645 225.937894,27.5403032 225.604199,28.4996776 C225.270503,29.4590521 225.103656,30.4914224 225.103656,31.5967886 C225.103656,32.6604429 225.280931,33.6615292 225.635483,34.6000477 C225.990034,35.5385662 226.495791,36.3519488 227.152754,37.0401957 C227.809717,37.7284426 228.59703,38.2759117 229.514693,38.6826031 C230.432355,39.0892944 231.454297,39.2926401 232.58052,39.2926401 C233.519038,39.2926401 234.436701,39.1101504 235.333507,38.745171 C236.230314,38.3801915 236.949844,37.8327224 237.4921,37.1027636 L237.4921,37.1027636 L237.554667,37.1027636 L237.554667,38.1977018 C237.554667,38.9485166 237.476458,39.6315495 237.320038,40.2468005 C237.163618,40.8620515 236.902919,41.3886647 236.537939,41.8266399 C236.17296,42.2646152 235.682844,42.6087387 235.067593,42.8590103 C234.452342,43.1092819 233.696314,43.2344176 232.799507,43.2344176 C231.735853,43.2344176 230.797334,43.046714 229.983952,42.6713066 C229.170569,42.2958992 228.38847,41.764072 227.637656,41.0758252 L227.637656,41.0758252 L225.385211,44.1416522 C226.448866,45.0801706 227.606372,45.7267056 228.85773,46.081257 C230.109088,46.4358084 231.433441,46.6130842 232.830791,46.6130842 Z M233.268766,35.9139736 C232.643087,35.9139736 232.05912,35.7992657 231.516865,35.5698501 C230.97461,35.3404345 230.505351,35.027595 230.109088,34.6313316 C229.712824,34.2350683 229.405199,33.776237 229.186211,33.2548379 C228.967223,32.7334387 228.85773,32.1703277 228.85773,31.5655046 C228.85773,30.8981137 228.967223,30.2880767 229.186211,29.7353936 C229.405199,29.1827105 229.70761,28.7134513 230.093446,28.3276159 C230.479281,27.9417805 230.943326,27.639369 231.485581,27.4203814 C232.027836,27.2013937 232.632659,27.0918999 233.30005,27.0918999 C234.676544,27.0918999 235.761054,27.4985913 236.553581,28.3119739 C237.346108,29.1253566 237.742371,30.1890109 237.742371,31.5029367 C237.742371,32.1286157 237.638091,32.7125828 237.429532,33.2548379 C237.220972,33.797093 236.923774,34.2611382 236.537939,34.6469736 C236.152104,35.032809 235.682844,35.3404345 235.130161,35.5698501 C234.577478,35.7992657 233.957013,35.9139736 233.268766,35.9139736 Z M106.130797,70.3888855 L106.130797,61.2226884 L108.946353,61.2226884 C110.114287,61.2226884 111.235295,61.1392645 112.309377,60.9724168 C113.38346,60.8055691 114.327192,60.4875156 115.140575,60.0182563 C115.953957,59.5489971 116.600492,58.8868202 117.080179,58.0317256 C117.559867,57.176631 117.79971,56.0504088 117.79971,54.6530591 C117.79971,53.4225571 117.575509,52.3954007 117.127105,51.5715901 C116.678702,50.7477794 116.079093,50.0908165 115.328278,49.6007013 C114.577464,49.1105861 113.706727,48.7612487 112.716069,48.552689 C111.72541,48.3441293 110.698254,48.2398495 109.6346,48.2398495 L109.6346,48.2398495 L102.18902,48.2398495 L102.18902,70.3888855 L106.130797,70.3888855 Z M108.508377,57.8440219 L106.130797,57.8440219 L106.130797,51.618516 L108.946353,51.618516 C109.467752,51.618516 110.010007,51.6498 110.573118,51.7123679 C111.136229,51.7749358 111.6472,51.9157135 112.106032,52.1347012 C112.564863,52.3536888 112.94027,52.6665283 113.232254,53.0732196 C113.524237,53.479911 113.670229,54.0273801 113.670229,54.715627 C113.670229,55.4664417 113.508595,56.0504088 113.185328,56.4675281 C112.86206,56.8846474 112.444941,57.1974869 111.93397,57.4060466 C111.422999,57.6146062 110.865102,57.739742 110.260279,57.781454 C109.655456,57.8231659 109.071489,57.8440219 108.508377,57.8440219 L108.508377,57.8440219 Z M124.713463,70.3888855 L124.713463,62.3489105 C124.713463,62.1403509 124.760389,61.8275114 124.854241,61.4103921 C124.948093,60.9932728 125.135796,60.5761534 125.417352,60.1590341 C125.698907,59.7419148 126.105599,59.3717214 126.637426,59.0484539 C127.169253,58.7251864 127.873142,58.5635527 128.749092,58.5635527 C129.041076,58.5635527 129.338274,58.5896227 129.640685,58.6417626 C129.943097,58.6939025 130.250722,58.7616844 130.563562,58.8451082 L130.563562,58.8451082 L130.563562,55.2161702 C130.334146,55.1536023 130.109944,55.1014623 129.890957,55.0597504 C129.671969,55.0180385 129.447767,54.9971825 129.218352,54.9971825 C128.217265,54.9971825 127.330887,55.2370261 126.559216,55.7167133 C125.787545,56.1964006 125.19315,56.8742195 124.776031,57.75017 L124.776031,57.75017 L124.713463,57.75017 L124.713463,55.3725899 L120.959389,55.3725899 L120.959389,70.3888855 L124.713463,70.3888855 Z M140.543141,70.7642929 C141.669363,70.7642929 142.733018,70.5765892 143.734104,70.2011818 C144.73519,69.8257744 145.600713,69.2939472 146.330672,68.6057004 C147.060631,67.9174535 147.639384,67.0884288 148.066931,66.1186264 C148.494478,65.148824 148.708252,64.0695277 148.708252,62.8807377 C148.708252,61.6919476 148.494478,60.6126514 148.066931,59.6428489 C147.639384,58.6730465 147.060631,57.8440219 146.330672,57.155775 C145.600713,56.4675281 144.73519,55.935701 143.734104,55.5602936 C142.733018,55.1848862 141.669363,54.9971825 140.543141,54.9971825 C139.416919,54.9971825 138.353265,55.1848862 137.352178,55.5602936 C136.351092,55.935701 135.48557,56.4675281 134.755611,57.155775 C134.025652,57.8440219 133.446899,58.6730465 133.019352,59.6428489 C132.591804,60.6126514 132.378031,61.6919476 132.378031,62.8807377 C132.378031,64.0695277 132.591804,65.148824 133.019352,66.1186264 C133.446899,67.0884288 134.025652,67.9174535 134.755611,68.6057004 C135.48557,69.2939472 136.351092,69.8257744 137.352178,70.2011818 C138.353265,70.5765892 139.416919,70.7642929 140.543141,70.7642929 Z M140.543141,67.3856263 C139.854894,67.3856263 139.239643,67.2604906 138.697388,67.010219 C138.155133,66.7599474 137.691088,66.4262519 137.305253,66.0091326 C136.919417,65.5920133 136.627434,65.112326 136.429302,64.5700709 C136.23117,64.0278158 136.132104,63.4647047 136.132104,62.8807377 C136.132104,62.2967706 136.23117,61.7336595 136.429302,61.1914044 C136.627434,60.6491493 136.919417,60.1694621 137.305253,59.7523428 C137.691088,59.3352234 138.155133,59.001528 138.697388,58.7512564 C139.239643,58.5009848 139.854894,58.375849 140.543141,58.375849 C141.231388,58.375849 141.846639,58.5009848 142.388894,58.7512564 C142.931149,59.001528 143.395195,59.3352234 143.78103,59.7523428 C144.166865,60.1694621 144.458849,60.6491493 144.656981,61.1914044 C144.855112,61.7336595 144.954178,62.2967706 144.954178,62.8807377 C144.954178,63.4647047 144.855112,64.0278158 144.656981,64.5700709 C144.458849,65.112326 144.166865,65.5920133 143.78103,66.0091326 C143.395195,66.4262519 142.931149,66.7599474 142.388894,67.010219 C141.846639,67.2604906 141.231388,67.3856263 140.543141,67.3856263 Z M158.468844,70.7642929 C158.906819,70.7642929 159.412577,70.7277949 159.986116,70.654799 C160.559655,70.5818031 161.044556,70.4514534 161.440819,70.2637497 L161.440819,70.2637497 L161.440819,67.1040708 C161.211404,67.2709185 160.898564,67.3908403 160.502301,67.4638362 C160.106037,67.5368321 159.741058,67.57333 159.407363,67.57333 C158.573124,67.57333 158.015227,67.3543424 157.733671,66.9163671 C157.452116,66.4783918 157.311338,65.8839968 157.311338,65.133182 L157.311338,65.133182 L157.311338,58.5635527 L161.440819,58.5635527 L161.440819,55.3725899 L157.311338,55.3725899 L157.311338,51.024121 L153.557264,51.024121 L153.557264,55.3725899 L150.460153,55.3725899 L150.460153,58.5635527 L153.557264,58.5635527 L153.557264,65.4460215 C153.557264,66.3219721 153.625046,67.0936428 153.76061,67.7610337 C153.896174,68.4284247 154.146445,68.9863217 154.511425,69.434725 C154.876404,69.8831283 155.376947,70.2168237 156.013054,70.4358114 C156.649161,70.654799 157.467758,70.7642929 158.468844,70.7642929 Z M171.795806,70.7642929 C172.922029,70.7642929 173.985683,70.5765892 174.986769,70.2011818 C175.987856,69.8257744 176.853378,69.2939472 177.583337,68.6057004 C178.313296,67.9174535 178.892049,67.0884288 179.319596,66.1186264 C179.747144,65.148824 179.960917,64.0695277 179.960917,62.8807377 C179.960917,61.6919476 179.747144,60.6126514 179.319596,59.6428489 C178.892049,58.6730465 178.313296,57.8440219 177.583337,57.155775 C176.853378,56.4675281 175.987856,55.935701 174.986769,55.5602936 C173.985683,55.1848862 172.922029,54.9971825 171.795806,54.9971825 C170.669584,54.9971825 169.60593,55.1848862 168.604844,55.5602936 C167.603757,55.935701 166.738235,56.4675281 166.008276,57.155775 C165.278317,57.8440219 164.699564,58.6730465 164.272017,59.6428489 C163.844469,60.6126514 163.630696,61.6919476 163.630696,62.8807377 C163.630696,64.0695277 163.844469,65.148824 164.272017,66.1186264 C164.699564,67.0884288 165.278317,67.9174535 166.008276,68.6057004 C166.738235,69.2939472 167.603757,69.8257744 168.604844,70.2011818 C169.60593,70.5765892 170.669584,70.7642929 171.795806,70.7642929 Z M171.795806,67.3856263 C171.10756,67.3856263 170.492309,67.2604906 169.950053,67.010219 C169.407798,66.7599474 168.943753,66.4262519 168.557918,66.0091326 C168.172082,65.5920133 167.880099,65.112326 167.681967,64.5700709 C167.483835,64.0278158 167.38477,63.4647047 167.38477,62.8807377 C167.38477,62.2967706 167.483835,61.7336595 167.681967,61.1914044 C167.880099,60.6491493 168.172082,60.1694621 168.557918,59.7523428 C168.943753,59.3352234 169.407798,59.001528 169.950053,58.7512564 C170.492309,58.5009848 171.10756,58.375849 171.795806,58.375849 C172.484053,58.375849 173.099304,58.5009848 173.641559,58.7512564 C174.183815,59.001528 174.64786,59.3352234 175.033695,59.7523428 C175.419531,60.1694621 175.711514,60.6491493 175.909646,61.1914044 C176.107777,61.7336595 176.206843,62.2967706 176.206843,62.8807377 C176.206843,63.4647047 176.107777,64.0278158 175.909646,64.5700709 C175.711514,65.112326 175.419531,65.5920133 175.033695,66.0091326 C174.64786,66.4262519 174.183815,66.7599474 173.641559,67.010219 C173.099304,67.2604906 172.484053,67.3856263 171.795806,67.3856263 Z M190.879015,70.7642929 C191.212711,70.7642929 191.608974,70.7277949 192.067805,70.654799 C192.526637,70.5818031 193.006324,70.4618813 193.506867,70.2950336 C194.00741,70.1281859 194.50274,69.9091982 194.992855,69.6380707 C195.48297,69.3669431 195.915731,69.0436757 196.291139,68.6682683 L196.291139,68.6682683 L193.788423,65.9778486 C193.433871,66.4366799 193.006324,66.7860173 192.505781,67.0258609 C192.005238,67.2657045 191.462982,67.3856263 190.879015,67.3856263 C190.190769,67.3856263 189.575518,67.2604906 189.033262,67.010219 C188.491007,66.7599474 188.026962,66.4262519 187.641127,66.0091326 C187.255291,65.5920133 186.963308,65.112326 186.765176,64.5700709 C186.567044,64.0278158 186.467979,63.4647047 186.467979,62.8807377 C186.467979,62.2967706 186.567044,61.7336595 186.765176,61.1914044 C186.963308,60.6491493 187.255291,60.1694621 187.641127,59.7523428 C188.026962,59.3352234 188.491007,59.001528 189.033262,58.7512564 C189.575518,58.5009848 190.190769,58.375849 190.879015,58.375849 C191.379559,58.375849 191.869674,58.5114128 192.349361,58.7825403 C192.829048,59.0536679 193.287879,59.4186473 193.725855,59.8774786 L193.725855,59.8774786 L196.322423,57.2809108 C195.592464,56.4883841 194.742583,55.909631 193.772781,55.5446516 C192.802978,55.1796722 191.83839,54.9971825 190.879015,54.9971825 C189.752793,54.9971825 188.689139,55.1848862 187.688053,55.5602936 C186.686966,55.935701 185.821444,56.4675281 185.091485,57.155775 C184.361526,57.8440219 183.782773,58.6730465 183.355226,59.6428489 C182.927678,60.6126514 182.713905,61.6919476 182.713905,62.8807377 C182.713905,64.0695277 182.927678,65.148824 183.355226,66.1186264 C183.782773,67.0884288 184.361526,67.9174535 185.091485,68.6057004 C185.821444,69.2939472 186.686966,69.8257744 187.688053,70.2011818 C188.689139,70.5765892 189.752793,70.7642929 190.879015,70.7642929 Z M205.957879,70.7642929 C207.084101,70.7642929 208.147755,70.5765892 209.148842,70.2011818 C210.149928,69.8257744 211.015451,69.2939472 211.745409,68.6057004 C212.475368,67.9174535 213.054121,67.0884288 213.481669,66.1186264 C213.909216,65.148824 214.12299,64.0695277 214.12299,62.8807377 C214.12299,61.6919476 213.909216,60.6126514 213.481669,59.6428489 C213.054121,58.6730465 212.475368,57.8440219 211.745409,57.155775 C211.015451,56.4675281 210.149928,55.935701 209.148842,55.5602936 C208.147755,55.1848862 207.084101,54.9971825 205.957879,54.9971825 C204.831657,54.9971825 203.768002,55.1848862 202.766916,55.5602936 C201.76583,55.935701 200.900307,56.4675281 200.170348,57.155775 C199.440389,57.8440219 198.861636,58.6730465 198.434089,59.6428489 C198.006542,60.6126514 197.792768,61.6919476 197.792768,62.8807377 C197.792768,64.0695277 198.006542,65.148824 198.434089,66.1186264 C198.861636,67.0884288 199.440389,67.9174535 200.170348,68.6057004 C200.900307,69.2939472 201.76583,69.8257744 202.766916,70.2011818 C203.768002,70.5765892 204.831657,70.7642929 205.957879,70.7642929 Z M205.957879,67.3856263 C205.269632,67.3856263 204.654381,67.2604906 204.112126,67.010219 C203.569871,66.7599474 203.105826,66.4262519 202.71999,66.0091326 C202.334155,65.5920133 202.042171,65.112326 201.84404,64.5700709 C201.645908,64.0278158 201.546842,63.4647047 201.546842,62.8807377 C201.546842,62.2967706 201.645908,61.7336595 201.84404,61.1914044 C202.042171,60.6491493 202.334155,60.1694621 202.71999,59.7523428 C203.105826,59.3352234 203.569871,59.001528 204.112126,58.7512564 C204.654381,58.5009848 205.269632,58.375849 205.957879,58.375849 C206.646126,58.375849 207.261377,58.5009848 207.803632,58.7512564 C208.345887,59.001528 208.809932,59.3352234 209.195768,59.7523428 C209.581603,60.1694621 209.873586,60.6491493 210.071718,61.1914044 C210.26985,61.7336595 210.368916,62.2967706 210.368916,62.8807377 C210.368916,63.4647047 210.26985,64.0278158 210.071718,64.5700709 C209.873586,65.112326 209.581603,65.5920133 209.195768,66.0091326 C208.809932,66.4262519 208.345887,66.7599474 207.803632,67.010219 C207.261377,67.2604906 206.646126,67.3856263 205.957879,67.3856263 Z M221.443434,70.3888855 L221.443434,46.7382199 L217.68936,46.7382199 L217.68936,70.3888855 L221.443434,70.3888855 Z" id="bnb48clubProtocol-Copy" fill="#29D1FF" fill-rule="nonzero"></path>
        </g>
    </g>
</svg>
