<svg width="32" height="32" viewBox="0 0 32 32" fill="none" xmlns="http://www.w3.org/2000/svg">
<g filter="url(#filter0_b_254_478)">
<rect width="32" height="32" rx="4" fill="white" fill-opacity="0.2"/>
<path d="M19.1067 14.0717L17.9283 12.8934L10.1667 20.6551V21.8334H11.345L19.1067 14.0717ZM20.285 12.8934L21.4633 11.7151L20.285 10.5367L19.1067 11.7151L20.285 12.8934ZM12.035 23.5001H8.5V19.9642L19.6958 8.7684C19.8521 8.61218 20.064 8.52441 20.285 8.52441C20.506 8.52441 20.7179 8.61218 20.8742 8.7684L23.2317 11.1259C23.3879 11.2822 23.4757 11.4941 23.4757 11.7151C23.4757 11.936 23.3879 12.148 23.2317 12.3042L12.0358 23.5001H12.035Z" fill="white"/>
</g>
<defs>
<filter id="filter0_b_254_478" x="-10" y="-10" width="52" height="52" filterUnits="userSpaceOnUse" color-interpolation-filters="sRGB">
<feFlood flood-opacity="0" result="BackgroundImageFix"/>
<feGaussianBlur in="BackgroundImage" stdDeviation="5"/>
<feComposite in2="SourceAlpha" operator="in" result="effect1_backgroundBlur_254_478"/>
<feBlend mode="normal" in="SourceGraphic" in2="effect1_backgroundBlur_254_478" result="shape"/>
</filter>
</defs>
</svg>
