<svg width="28" height="28" viewBox="0 0 28 28" fill="none" xmlns="http://www.w3.org/2000/svg">
  <rect width="28" height="28" rx="14" fill="#2F323B"/>
  <path
    d="M15.4096 13.9991L19.706 9.71268C19.8942 9.52453 19.9999 9.26935 19.9999 9.00326C19.9999 8.73718 19.8942 8.482 19.706 8.29385C19.5179 8.1057 19.2627 8 18.9966 8C18.7305 8 18.4753 8.1057 18.2872 8.29385L14.0007 12.5903L9.71426 8.29385C9.52611 8.1057 9.27093 8 9.00485 8C8.73877 8 8.48358 8.1057 8.29543 8.29385C8.10728 8.482 8.00158 8.73718 8.00158 9.00326C8.00158 9.26935 8.10728 9.52453 8.29543 9.71268L12.5919 13.9991L8.29543 18.2856C8.20178 18.3785 8.12745 18.489 8.07672 18.6108C8.02599 18.7325 7.99988 18.8631 7.99988 18.995C7.99988 19.1269 8.02599 19.2575 8.07672 19.3793C8.12745 19.501 8.20178 19.6116 8.29543 19.7044C8.38832 19.7981 8.49883 19.8724 8.62059 19.9232C8.74235 19.9739 8.87295 20 9.00485 20C9.13675 20 9.26735 19.9739 9.38911 19.9232C9.51087 19.8724 9.62138 19.7981 9.71426 19.7044L14.0007 15.408L18.2872 19.7044C18.3801 19.7981 18.4906 19.8724 18.6124 19.9232C18.7341 19.9739 18.8647 20 18.9966 20C19.1285 20 19.2591 19.9739 19.3809 19.9232C19.5026 19.8724 19.6131 19.7981 19.706 19.7044C19.7997 19.6116 19.874 19.501 19.9247 19.3793C19.9755 19.2575 20.0016 19.1269 20.0016 18.995C20.0016 18.8631 19.9755 18.7325 19.9247 18.6108C19.874 18.489 19.7997 18.3785 19.706 18.2856L15.4096 13.9991Z"
    fill="#8F9FB2"/>
</svg>
