<?xml version="1.0" encoding="utf-8"?>
<!-- Generator: Adobe Illustrator 27.5.0, SVG Export Plug-In . SVG Version: 6.00 Build 0)  -->
<svg version="1.1" xmlns="http://www.w3.org/2000/svg" xmlns:xlink="http://www.w3.org/1999/xlink" x="0px" y="0px"
	 viewBox="0 0 1080 1080" style="enable-background:new 0 0 1080 1080;" xml:space="preserve">
<style type="text/css">
	.st0{display:none;}
	.st1{display:inline;fill:#1D1D1B;}
	.st2{fill:#FFFFFF;}
	.st3{fill:#FFC700;}
	.st4{fill:#FFAC33;}
	.st5{fill:#2C2E35;}
	.st6{display:none;fill:#FFFFFF;}
</style>
<g id="图层_4">
	<circle class="st2" cx="541.45" cy="540.45" r="537.44"/>
</g>
<g id="图层_3">
	<g id="Layer_1">
		<g>
			<polygon class="st3" points="910.82,800.29 780.61,800.26 674.25,800.24 618.03,667.15 724.38,667.17 677.08,555.21 
				632.09,448.75 576.31,316.69 522.69,189.78 649.35,189.81 652.9,189.81 707.19,318.3 807.28,555.24 854.59,667.2 			"/>
		</g>
		<polygon class="st4" points="780.61,800.26 579.5,324.24 518.27,430.61 674.25,800.24 		"/>
	</g>
	<g id="图层_2">
		<g>
			<polygon class="st5" points="579.5,324.24 583.7,316.95 530.09,190.05 522.55,190.03 171.19,800.42 305.38,800.44 518.27,430.61 
				473.15,323.62 			"/>
			<polygon class="st5" points="473.15,323.62 518.27,430.61 579.5,324.24 			"/>
		</g>
		<g>
			<polygon class="st5" points="550.79,800.23 448.61,551.63 348.38,725.75 379.08,800.04 422.31,799.81 			"/>
			<polygon class="st6" points="305.17,800.81 382.29,807.8 379.08,800.04 305.38,800.44 			"/>
			<polygon class="st6" points="305.38,800.44 379.08,800.04 348.38,725.75 			"/>
		</g>
	</g>
</g>
</svg>
